<?xml version="1.0" encoding="UTF-8" standalone="no"?>
<!DOCTYPE svg PUBLIC "-//W3C//DTD SVG 1.1//EN" "http://www.w3.org/Graphics/SVG/1.1/DTD/svg11.dtd">
<svg width="100%" height="100%" viewBox="0 0 600 250" version="1.1" xmlns="http://www.w3.org/2000/svg" xmlns:xlink="http://www.w3.org/1999/xlink" xml:space="preserve" xmlns:serif="http://www.serif.com/" style="fill-rule:evenodd;clip-rule:evenodd;stroke-linejoin:round;stroke-miterlimit:1.41421;">
    <g transform="matrix(1,0,0,1,-48.8765,-28.4428)">
        <path d="M408.737,121.187L409.831,121.187C412.306,121.187 414.33,123.211 414.33,125.686L414.33,220.627C414.33,223.102 412.306,225.126 409.831,225.126L408.737,225.126C406.263,225.126 404.239,223.102 404.239,220.627L404.239,125.686C404.239,123.211 406.263,121.187 408.737,121.187" style="fill:rgb(38,54,107);"/>
    </g>
    <g transform="matrix(1,0,0,1,-48.8765,-28.4428)">
        <path d="M324.308,121.187L325.401,121.187C327.876,121.187 329.9,123.211 329.9,125.686L329.9,220.627C329.9,223.102 327.876,225.126 325.401,225.126L324.308,225.126C321.833,225.126 319.809,223.102 319.809,220.627L319.809,125.686C319.809,123.211 321.833,121.187 324.308,121.187" style="fill:rgb(38,54,107);"/>
    </g>
    <g transform="matrix(1,0,0,1,-48.8765,-174.018)">
        <path d="M370.49,210.273L371.227,211.082L371.31,211.175L440.136,273.978C441.964,275.647 442.094,278.506 440.426,280.334L439.689,281.142C438.021,282.97 435.162,283.101 433.334,281.433L367.069,220.966L300.805,281.433C298.976,283.101 296.117,282.97 294.449,281.142L293.711,280.334C292.044,278.506 292.175,275.647 294.002,273.978L362.829,211.175L362.911,211.082L363.648,210.273C364.556,209.279 365.815,208.787 367.069,208.813C368.323,208.787 369.583,209.279 370.49,210.273" style="fill:rgb(46,173,222);"/>
    </g>
    <g transform="matrix(1,0,0,1,-48.8765,-71.1019)">
        <path d="M321.238,195.033L321.238,193.94C321.238,191.464 323.263,189.44 325.737,189.44L408.401,189.44C410.876,189.44 412.9,191.464 412.9,193.94L412.9,195.033C412.9,197.507 410.876,199.532 408.401,199.532L325.737,199.532C323.263,199.532 321.238,197.507 321.238,195.033" style="fill:rgb(38,54,107);"/>
    </g>
    <g transform="matrix(1,0,0,1,-48.8765,6.0775)">
        <path d="M321.238,156.443L321.238,155.349C321.238,152.875 323.263,150.851 325.737,150.851L408.401,150.851C410.876,150.851 412.9,152.875 412.9,155.349L412.9,156.443C412.9,158.918 410.876,160.942 408.401,160.942L325.737,160.942C323.263,160.942 321.238,158.918 321.238,156.443" style="fill:rgb(38,54,107);"/>
    </g>
    <g transform="matrix(1,0,0,1,-48.8765,-121.547)">
        <path d="M346.692,217.502L329.952,217.502C329.406,217.502 329.021,218.076 328.832,218.799C328.75,219.118 328.706,219.46 328.704,219.8C328.701,220.14 328.739,220.476 328.819,220.783C328.987,221.423 329.342,221.916 329.891,221.916C335.479,221.916 341.068,221.916 346.657,221.916C347.278,221.916 347.331,223.037 346.605,223.037L329.891,223.037C328.731,223.037 328.028,222.179 327.737,221.063C327.634,220.664 327.584,220.23 327.587,219.796C327.59,219.361 327.645,218.924 327.751,218.519C328.061,217.327 328.803,216.38 329.952,216.38C335.532,216.38 341.112,216.38 346.692,216.38C347.3,216.38 347.3,217.502 346.692,217.502" style="fill:rgb(122,201,69);fill-rule:nonzero;"/>
    </g>
    <g transform="matrix(1,0,0,1,-48.8765,-121.547)">
        <path d="M346.103,221.916L346.103,221.127L345.158,220.882L345.999,220.549L345.999,219.726L342.425,219.428L346.068,218.657L346.055,217.501L329.952,217.501C329.406,217.501 329.021,218.076 328.832,218.799C328.75,219.117 328.706,219.459 328.704,219.8C328.701,220.14 328.739,220.476 328.819,220.782C328.987,221.422 329.342,221.916 329.891,221.916L346.103,221.916Z" style="fill:rgb(242,242,242);"/>
    </g>
    <g transform="matrix(1,0,0,1,-48.8765,-119.178)">
        <path d="M328.973,218.846L336.276,218.215L328.771,218.202C328.785,218.275 328.801,218.344 328.819,218.413C328.859,218.568 328.91,218.713 328.973,218.846" style="fill:rgb(204,204,204);"/>
    </g>
    <g transform="matrix(1,0,0,1,-48.8765,-121.327)">
        <path d="M328.707,219.773L332.79,219.612L328.708,219.425C328.706,219.476 328.704,219.528 328.704,219.58C328.703,219.645 328.704,219.709 328.707,219.773" style="fill:rgb(204,204,204);"/>
    </g>
    <g transform="matrix(1,0,0,1,-48.8765,-118.078)">
        <path d="M346.103,218.225L346.103,217.723L338.764,217.887L346.103,218.225Z" style="fill:rgb(204,204,204);"/>
    </g>
    <g transform="matrix(1,0,0,1,-48.8765,-124.843)">
        <path d="M346.065,221.682L346.058,221.031L342.372,221.271L346.065,221.682Z" style="fill:rgb(204,204,204);"/>
    </g>
    <g transform="matrix(1,0,0,1,-48.8765,-110.609)">
        <path d="M352.769,205.263L345.249,220.637C345.004,221.138 345.284,221.714 345.77,222.166C345.984,222.364 346.234,222.536 346.501,222.67C346.769,222.803 347.051,222.898 347.328,222.943C347.908,223.036 348.457,222.9 348.704,222.396C351.214,217.263 353.725,212.131 356.236,206.998C356.515,206.428 357.424,206.811 357.097,207.479L349.588,222.829C349.067,223.893 348.074,224.208 347.063,224.044C346.702,223.986 346.337,223.864 345.996,223.694C345.655,223.523 345.335,223.304 345.063,223.051C344.262,222.306 343.849,221.259 344.365,220.204C346.871,215.079 349.378,209.955 351.885,204.83C352.159,204.271 353.043,204.704 352.769,205.263" style="fill:rgb(120,199,61);fill-rule:nonzero;"/>
    </g>
    <g transform="matrix(1,0,0,1,-48.8765,-110.204)">
        <path d="M355.987,207.102L355.366,206.798L354.747,207.571L354.863,206.67L354.213,206.353L352.373,209.52L353.402,205.876L352.483,205.443L345.249,220.232C345.004,220.733 345.284,221.309 345.77,221.761C345.984,221.96 346.234,222.132 346.501,222.265C346.769,222.399 347.051,222.494 347.328,222.539C347.908,222.632 348.457,222.496 348.704,221.992L355.987,207.102Z" style="fill:rgb(242,242,242);"/>
    </g>
    <g transform="matrix(1,0,0,1,-48.8765,-100.095)">
        <path d="M347.738,212.455L350.522,205.505L347.141,212.392C347.203,212.407 347.266,212.419 347.328,212.429C347.468,212.452 347.606,212.461 347.738,212.455" style="fill:rgb(204,204,204);"/>
    </g>
    <g transform="matrix(1,0,0,1,-48.8765,-97.4171)">
        <path d="M346.655,209.549L348.362,205.738L346.38,209.415C346.42,209.436 346.46,209.457 346.501,209.478C346.552,209.503 346.603,209.527 346.655,209.549" style="fill:rgb(204,204,204);"/>
    </g>
    <g transform="matrix(1,0,0,1,-48.8765,-117.83)">
        <path d="M355.812,214.642L355.416,214.448L352.248,221.253L355.812,214.642Z" style="fill:rgb(204,204,204);"/>
    </g>
    <g transform="matrix(1,0,0,1,-48.8765,-123.742)">
        <path d="M353.186,219.311L352.669,219.067L351.203,222.545L353.186,219.311Z" style="fill:rgb(204,204,204);"/>
    </g>
    <g transform="matrix(1,0,0,1,-48.8765,-85.3835)">
        <path d="M373.45,199.633L356.34,199.165C355.782,199.149 355.376,199.721 355.168,200.448C355.077,200.768 355.025,201.113 355.016,201.457C355.007,201.802 355.038,202.144 355.114,202.456C355.271,203.11 355.624,203.619 356.185,203.634C361.897,203.79 367.61,203.947 373.322,204.103C373.957,204.12 373.989,205.258 373.245,205.237L356.162,204.77C354.977,204.738 354.276,203.848 354.002,202.71C353.904,202.303 353.863,201.862 353.875,201.422C353.887,200.982 353.953,200.54 354.069,200.133C354.411,198.935 355.189,197.996 356.363,198.029C362.067,198.184 367.77,198.34 373.473,198.496C374.095,198.514 374.071,199.649 373.45,199.633" style="fill:rgb(255,122,171);fill-rule:nonzero;"/>
    </g>
    <g transform="matrix(1,0,0,1,-48.8765,-85.4004)">
        <path d="M372.757,204.105L372.773,203.306L371.812,203.031L372.678,202.718L372.696,201.884L369.049,201.482L372.789,200.803L372.799,199.631L356.34,199.181C355.782,199.166 355.376,199.737 355.168,200.465C355.077,200.785 355.025,201.13 355.016,201.474C355.007,201.819 355.038,202.161 355.114,202.473C355.271,203.127 355.624,203.635 356.185,203.651L372.757,204.105Z" style="fill:rgb(242,242,242);"/>
    </g>
    <g transform="matrix(1,0,0,1,-48.8765,-83.4972)">
        <path d="M355.261,201.012L362.739,200.578L355.069,200.355C355.082,200.428 355.096,200.499 355.114,200.57C355.151,200.727 355.201,200.877 355.261,201.012" style="fill:rgb(204,204,204);"/>
    </g>
    <g transform="matrix(1,0,0,1,-48.8765,-85.6839)">
        <path d="M355.015,201.954L359.192,201.904L355.023,201.6C355.02,201.653 355.018,201.705 355.016,201.758C355.014,201.823 355.014,201.889 355.015,201.954" style="fill:rgb(204,204,204);"/>
    </g>
    <g transform="matrix(1,0,0,1,-48.8765,-81.4595)">
        <path d="M372.761,199.939L372.772,199.43L365.266,199.391L372.761,199.939Z" style="fill:rgb(204,204,204);"/>
    </g>
    <g transform="matrix(1,0,0,1,-48.8765,-88.2739)">
        <path d="M372.792,203.402L372.797,202.742L369.025,202.881L372.792,203.402Z" style="fill:rgb(204,204,204);"/>
    </g>
    <g transform="matrix(1,0,0,1,-48.8765,-97.3664)">
        <path d="M354.84,206.115L371.949,205.762C372.508,205.75 372.913,206.181 373.121,206.729C373.212,206.97 373.264,207.231 373.273,207.49C373.283,207.75 373.251,208.008 373.176,208.242C373.018,208.736 372.665,209.119 372.104,209.131C366.392,209.248 360.68,209.366 354.967,209.484C354.332,209.497 354.301,210.354 355.044,210.339L372.127,209.986C373.312,209.962 374.013,209.292 374.287,208.434C374.385,208.127 374.427,207.795 374.415,207.463C374.402,207.132 374.337,206.8 374.22,206.493C373.879,205.59 373.1,204.883 371.926,204.906C366.223,205.024 360.52,205.142 354.816,205.259C354.195,205.272 354.218,206.128 354.84,206.115" style="fill:rgb(0,168,158);fill-rule:nonzero;"/>
    </g>
    <g transform="matrix(1,0,0,1,-48.8765,-97.3802)">
        <path d="M355.533,209.486L355.516,208.884L356.477,208.677L355.611,208.441L355.594,207.813L359.241,207.51L355.5,206.998L355.49,206.116L371.949,205.776C372.508,205.764 372.913,206.195 373.121,206.743C373.212,206.984 373.264,207.245 373.273,207.504C373.283,207.764 373.251,208.022 373.176,208.256C373.018,208.749 372.665,209.132 372.104,209.144L355.533,209.486Z" style="fill:rgb(242,242,242);"/>
    </g>
    <g transform="matrix(1,0,0,1,-48.8765,-95.9456)">
        <path d="M373.028,207.155L365.55,206.828L373.22,206.66C373.207,206.715 373.193,206.769 373.176,206.822C373.138,206.94 373.089,207.053 373.028,207.155" style="fill:rgb(204,204,204);"/>
    </g>
    <g transform="matrix(1,0,0,1,-48.8765,-97.5937)">
        <path d="M373.274,207.865L369.098,207.828L373.266,207.599C373.269,207.639 373.272,207.678 373.273,207.718C373.275,207.767 373.275,207.816 373.274,207.865" style="fill:rgb(204,204,204);"/>
    </g>
    <g transform="matrix(1,0,0,1,-48.8765,-94.4104)">
        <path d="M355.528,206.347L355.518,205.963L363.023,205.934L355.528,206.347Z" style="fill:rgb(204,204,204);"/>
    </g>
    <g transform="matrix(1,0,0,1,-48.8765,-99.545)">
        <path d="M355.498,208.956L355.492,208.459L359.264,208.564L355.498,208.956Z" style="fill:rgb(204,204,204);"/>
    </g>
    <g transform="matrix(1,0,0,1,-48.8765,-107.536)">
        <path d="M355.351,210.359L372.417,211.638C372.974,211.679 373.336,212.147 373.491,212.712C373.559,212.961 373.585,213.225 373.57,213.484C373.555,213.743 373.498,213.997 373.402,214.224C373.198,214.7 372.81,215.047 372.25,215.005C366.553,214.578 360.855,214.151 355.158,213.725C354.524,213.677 354.411,214.527 355.152,214.582L372.192,215.859C373.374,215.948 374.135,215.348 374.49,214.52C374.616,214.224 374.689,213.898 374.709,213.566C374.728,213.235 374.695,212.898 374.608,212.581C374.354,211.65 373.646,210.872 372.475,210.783C366.787,210.357 361.098,209.931 355.41,209.504C354.79,209.458 354.731,210.312 355.351,210.359" style="fill:rgb(252,148,31);fill-rule:nonzero;"/>
    </g>
    <g transform="matrix(1,0,0,1,-48.8765,-107.487)">
        <path d="M355.721,213.718L355.762,213.117L356.739,213.003L355.899,212.685L355.942,212.058L359.601,212.104L355.926,211.238L356,210.359L372.417,211.589C372.974,211.631 373.336,212.098 373.491,212.663C373.559,212.912 373.585,213.176 373.57,213.436C373.555,213.695 373.498,213.948 373.402,214.175C373.198,214.651 372.81,214.999 372.25,214.957L355.721,213.718Z" style="fill:rgb(242,242,242);"/>
    </g>
    <g transform="matrix(1,0,0,1,-48.8765,-104.897)">
        <path d="M373.222,211.903L365.809,210.865L373.461,211.428C373.443,211.482 373.423,211.534 373.402,211.585C373.353,211.699 373.293,211.807 373.222,211.903" style="fill:rgb(204,204,204);"/>
    </g>
    <g transform="matrix(1,0,0,1,-48.8765,-106.115)">
        <path d="M373.557,212.21L369.403,211.775L373.574,211.944C373.574,211.984 373.573,212.024 373.57,212.064C373.567,212.113 373.563,212.162 373.557,212.21" style="fill:rgb(204,204,204);"/>
    </g>
    <g transform="matrix(1,0,0,1,-48.8765,-105.827)">
        <path d="M355.733,211.888L355.759,211.506L363.233,212.191L355.733,211.888Z" style="fill:rgb(204,204,204);"/>
    </g>
    <g transform="matrix(1,0,0,1,-48.8765,-111.276)">
        <path d="M355.943,214.821L355.985,214.325L359.73,214.789L355.943,214.821Z" style="fill:rgb(204,204,204);"/>
    </g>
    <g transform="matrix(1,0,0,1,-48.8765,-125.994)">
        <path d="M348.776,218.106C348.776,218.106 346.932,222.686 348.776,225.175L372.375,225.757L373.781,223.587L372.998,223.428L372.214,225.149C372.214,225.149 371.408,221.504 372.214,219.572L373.044,221.081L373.758,221.266L372.445,218.512L348.776,218.106Z" style="fill:rgb(252,237,33);"/>
    </g>
    <g transform="matrix(1,0,0,1,-48.8765,-121.724)">
        <path d="M356.437,216.841L373.503,218.453C374.059,218.506 374.422,219.095 374.576,219.808C374.645,220.122 374.671,220.455 374.656,220.782C374.641,221.109 374.584,221.428 374.487,221.714C374.283,222.314 373.895,222.753 373.336,222.7C367.638,222.161 361.941,221.623 356.243,221.085C355.61,221.025 355.496,222.096 356.238,222.167L373.277,223.777C374.459,223.889 375.22,223.133 375.575,222.088C375.702,221.715 375.775,221.303 375.794,220.885C375.814,220.467 375.78,220.042 375.694,219.643C375.44,218.469 374.732,217.487 373.561,217.377C367.872,216.839 362.184,216.301 356.495,215.763C355.876,215.705 355.817,216.782 356.437,216.841" style="fill:rgb(255,33,36);fill-rule:nonzero;"/>
    </g>
    <g transform="matrix(1,0,0,1,-48.8765,-121.663)">
        <path d="M356.807,221.077L356.848,220.32L357.825,220.175L356.985,219.775L357.028,218.984L360.687,219.042L357.012,217.951L357.086,216.841L373.503,218.393C374.059,218.446 374.422,219.035 374.576,219.748C374.645,220.061 374.671,220.395 374.656,220.721C374.641,221.048 374.584,221.367 374.487,221.654C374.283,222.253 373.895,222.692 373.336,222.639L356.807,221.077Z" style="fill:rgb(242,242,242);"/>
    </g>
    <g transform="matrix(1,0,0,1,-48.8765,-118.397)">
        <path d="M374.308,218.788L366.895,217.479L374.547,218.189C374.529,218.257 374.509,218.323 374.487,218.387C374.438,218.532 374.378,218.666 374.308,218.788" style="fill:rgb(204,204,204);"/>
    </g>
    <g transform="matrix(1,0,0,1,-48.8765,-119.934)">
        <path d="M374.643,219.176L370.489,218.628L374.66,218.841C374.66,218.891 374.658,218.941 374.656,218.991C374.653,219.053 374.648,219.115 374.643,219.176" style="fill:rgb(204,204,204);"/>
    </g>
    <g transform="matrix(1,0,0,1,-48.8765,-119.57)">
        <path d="M356.819,218.77L356.845,218.288L364.319,219.152L356.819,218.77Z" style="fill:rgb(204,204,204);"/>
    </g>
    <g transform="matrix(1,0,0,1,-48.8765,-126.441)">
        <path d="M357.029,222.468L357.071,221.843L360.816,222.428L357.029,222.468Z" style="fill:rgb(204,204,204);"/>
    </g>
    <g transform="matrix(1,0,0,1,-48.8765,-110.291)">
        <path d="M331.521,215.544L346.294,215.544C346.776,215.544 347.116,215.163 347.282,214.684C347.355,214.472 347.394,214.245 347.396,214.02C347.398,213.794 347.365,213.571 347.294,213.369C347.147,212.944 346.833,212.617 346.348,212.617C341.416,212.617 336.484,212.617 331.552,212.617C331.004,212.617 330.956,211.873 331.598,211.873L346.348,211.873C347.372,211.873 347.992,212.442 348.249,213.183C348.341,213.447 348.384,213.735 348.382,214.023C348.379,214.311 348.33,214.601 348.237,214.869C347.963,215.66 347.308,216.288 346.294,216.288C341.37,216.288 336.446,216.288 331.521,216.288C330.984,216.288 330.984,215.544 331.521,215.544" style="fill:rgb(252,148,31);fill-rule:nonzero;"/>
    </g>
    <g transform="matrix(1,0,0,1,-48.8765,-110.291)">
        <path d="M332.04,212.616L332.04,213.139L332.875,213.302L332.132,213.523L332.132,214.069L335.287,214.266L332.071,214.777L332.083,215.544L346.294,215.544C346.776,215.544 347.116,215.163 347.282,214.683C347.355,214.472 347.394,214.245 347.396,214.02C347.398,213.794 347.365,213.571 347.294,213.368C347.147,212.944 346.833,212.616 346.348,212.616L332.04,212.616Z" style="fill:rgb(242,242,242);"/>
    </g>
    <g transform="matrix(1,0,0,1,-48.8765,-111.862)">
        <path d="M347.158,214.653L340.713,215.071L347.336,215.079C347.324,215.032 347.31,214.985 347.294,214.94C347.259,214.837 347.213,214.74 347.158,214.653" style="fill:rgb(204,204,204);"/>
    </g>
    <g transform="matrix(1,0,0,1,-48.8765,-110.436)">
        <path d="M347.393,214.037L343.79,214.144L347.393,214.268C347.394,214.234 347.396,214.199 347.396,214.164C347.396,214.122 347.395,214.079 347.393,214.037" style="fill:rgb(204,204,204);"/>
    </g>
    <g transform="matrix(1,0,0,1,-48.8765,-112.59)">
        <path d="M332.04,215.064L332.04,215.397L338.518,215.288L332.04,215.064Z" style="fill:rgb(204,204,204);"/>
    </g>
    <g transform="matrix(1,0,0,1,-48.8765,-108.105)">
        <path d="M332.074,212.771L332.08,213.203L335.333,213.044L332.074,212.771Z" style="fill:rgb(204,204,204);"/>
    </g>
    <g transform="matrix(1,0,0,1,-48.8765,-99.3531)">
        <path d="M330.183,210.284L344.956,210.284C345.438,210.284 345.778,209.848 345.944,209.3C346.018,209.059 346.056,208.8 346.058,208.542C346.06,208.285 346.027,208.029 345.956,207.798C345.809,207.313 345.495,206.94 345.01,206.94C340.078,206.94 335.146,206.94 330.214,206.94C329.665,206.94 329.618,206.09 330.26,206.09L345.01,206.09C346.033,206.09 346.654,206.74 346.911,207.586C347.003,207.888 347.047,208.217 347.043,208.546C347.041,208.875 346.992,209.206 346.899,209.513C346.625,210.416 345.97,211.133 344.956,211.133C340.032,211.133 335.108,211.133 330.183,211.133C329.646,211.133 329.646,210.284 330.183,210.284" style="fill:rgb(61,168,245);fill-rule:nonzero;"/>
    </g>
    <g transform="matrix(1,0,0,1,-48.8765,-99.3532)">
        <path d="M330.702,206.94L330.702,207.537L331.537,207.722L330.795,207.974L330.795,208.598L333.949,208.824L330.732,209.408L330.745,210.284L344.956,210.284C345.438,210.284 345.778,209.848 345.944,209.301C346.018,209.059 346.056,208.8 346.058,208.542C346.06,208.285 346.027,208.029 345.956,207.798C345.809,207.313 345.495,206.94 345.01,206.94L330.702,206.94Z" style="fill:rgb(242,242,242);"/>
    </g>
    <g transform="matrix(1,0,0,1,-48.8765,-101.148)">
        <path d="M345.821,209.265L339.375,209.743L345.998,209.753C345.986,209.698 345.972,209.645 345.956,209.593C345.92,209.476 345.876,209.365 345.821,209.265" style="fill:rgb(204,204,204);"/>
    </g>
    <g transform="matrix(1,0,0,1,-48.8765,-99.5193)">
        <path d="M346.055,208.563L342.452,208.685L346.054,208.827C346.056,208.787 346.057,208.748 346.058,208.708C346.058,208.66 346.057,208.611 346.055,208.563" style="fill:rgb(204,204,204);"/>
    </g>
    <g transform="matrix(1,0,0,1,-48.8765,-101.981)">
        <path d="M330.702,209.735L330.702,210.115L337.18,209.992L330.702,209.735Z" style="fill:rgb(204,204,204);"/>
    </g>
    <g transform="matrix(1,0,0,1,-48.8765,-96.8559)">
        <path d="M330.735,207.116L330.742,207.61L333.995,207.428L330.735,207.116Z" style="fill:rgb(204,204,204);"/>
    </g>
    <g transform="matrix(1,0,0,1,-48.8765,-85.7491)">
        <path d="M330.32,204.409L347.386,203.123C347.943,203.081 348.297,202.548 348.442,201.9C348.505,201.615 348.527,201.312 348.507,201.014C348.487,200.716 348.426,200.424 348.325,200.163C348.111,199.614 347.717,199.211 347.157,199.253C341.459,199.682 335.762,200.111 330.064,200.541C329.43,200.589 329.302,199.611 330.043,199.555L347.083,198.271C348.265,198.182 349.038,198.879 349.409,199.834C349.541,200.176 349.62,200.551 349.646,200.932C349.671,201.313 349.644,201.699 349.563,202.063C349.325,203.13 348.631,204.017 347.46,204.104C341.771,204.533 336.082,204.962 330.394,205.391C329.774,205.438 329.7,204.456 330.32,204.409" style="fill:rgb(255,33,36);fill-rule:nonzero;"/>
    </g>
    <g transform="matrix(1,0,0,1,-48.8765,-85.7973)">
        <path d="M330.628,200.547L330.68,201.237L331.66,201.379L330.824,201.735L330.879,202.456L334.543,202.442L330.878,203.397L330.969,204.409L347.386,203.171C347.943,203.129 348.297,202.596 348.442,201.949C348.505,201.663 348.527,201.36 348.507,201.062C348.487,200.765 348.426,200.473 348.325,200.211C348.111,199.662 347.717,199.259 347.157,199.301L330.628,200.547Z" style="fill:rgb(242,242,242);"/>
    </g>
    <g transform="matrix(1,0,0,1,-48.8765,-88.6631)">
        <path d="M348.14,202.71L340.735,203.823L348.386,203.257C348.368,203.196 348.347,203.136 348.325,203.077C348.273,202.945 348.211,202.821 348.14,202.71" style="fill:rgb(204,204,204);"/>
    </g>
    <g transform="matrix(1,0,0,1,-48.8765,-87.2226)">
        <path d="M348.491,202.319L344.339,202.774L348.513,202.624C348.512,202.578 348.51,202.533 348.507,202.487C348.503,202.431 348.497,202.375 348.491,202.319" style="fill:rgb(204,204,204);"/>
    </g>
    <g transform="matrix(1,0,0,1,-48.8765,-87.8107)">
        <path d="M330.643,202.754L330.676,203.194L338.148,202.487L330.643,202.754Z" style="fill:rgb(204,204,204);"/>
    </g>
    <g transform="matrix(1,0,0,1,-48.8765,-81.6267)">
        <path d="M330.899,199.463L330.95,200.033L334.692,199.541L330.899,199.463Z" style="fill:rgb(204,204,204);"/>
    </g>
    <g transform="matrix(1,0,0,1,-48.8765,-84.3255)">
        <path d="M372.802,197.772C372.802,197.772 370.647,201.754 372.802,203.918L400.382,204.424L402.025,202.536L401.11,202.398L400.193,203.894C400.193,203.894 399.251,200.726 400.193,199.045L401.164,200.357L401.998,200.519L400.463,198.125L372.802,197.772Z" style="fill:rgb(252,237,33);"/>
    </g>
    <g transform="matrix(1,0,0,1,-48.8765,-116.124)">
        <path d="M403.566,204.448L401.167,204.362C401.167,204.362 402.196,205.147 403.508,205.814C403.508,205.814 405.259,206.502 406.36,206.53L404.954,205.252L405.22,204.424L407.232,206.722L397.329,230.097L391.023,227.274L400.704,203.898L403.67,203.969L403.566,204.448Z" style="fill:rgb(255,33,36);"/>
    </g>
    <g transform="matrix(1,0,0,1,-48.8765,-26.8792)">
        <path d="M387.842,183.781L389.679,162.723C389.739,162.036 390.462,161.583 391.34,161.386C391.726,161.3 392.137,161.265 392.54,161.28C392.943,161.297 393.338,161.363 393.692,161.48C394.433,161.726 394.977,162.2 394.917,162.891C394.304,169.922 393.691,176.952 393.077,183.983C393.009,184.764 394.331,184.894 394.411,183.98L396.246,162.954C396.373,161.495 395.434,160.563 394.143,160.135C393.681,159.982 393.173,159.895 392.657,159.875C392.142,159.855 391.618,159.9 391.127,160.01C389.681,160.334 388.477,161.215 388.351,162.66C387.738,169.68 387.126,176.7 386.513,183.719C386.446,184.484 387.775,184.546 387.842,183.781" style="fill:rgb(191,125,189);fill-rule:nonzero;"/>
    </g>
    <g transform="matrix(1,0,0,1,-48.8765,-27.0765)">
        <path d="M393.137,183.485L392.203,183.44L392.016,182.237L391.53,183.277L390.554,183.231L390.594,178.718L389.28,183.26L387.912,183.178L389.679,162.92C389.739,162.234 390.462,161.781 391.34,161.584C391.726,161.497 392.137,161.462 392.54,161.478C392.943,161.494 393.338,161.561 393.692,161.677C394.433,161.923 394.977,162.398 394.917,163.089L393.137,183.485Z" style="fill:rgb(242,242,242);"/>
    </g>
    <g transform="matrix(1,0,0,1,-48.8765,-39.3698)">
        <path d="M394.188,174.188L392.639,183.341L393.447,173.899C393.531,173.92 393.612,173.944 393.692,173.97C393.87,174.03 394.037,174.103 394.188,174.188" style="fill:rgb(204,204,204);"/>
    </g>
    <g transform="matrix(1,0,0,1,-48.8765,-43.9293)">
        <path d="M392.769,178.345L392.129,183.472L392.355,178.327C392.417,178.327 392.479,178.328 392.54,178.331C392.617,178.333 392.693,178.339 392.769,178.345" style="fill:rgb(204,204,204);"/>
    </g>
    <g transform="matrix(1,0,0,1,-48.8765,-14.3314)">
        <path d="M392.875,170.727L392.279,170.699L393.279,161.474L392.875,170.727Z" style="fill:rgb(204,204,204);"/>
    </g>
    <g transform="matrix(1,0,0,1,-48.8765,-10.2115)">
        <path d="M388.96,166.376L388.188,166.33L388.876,161.706L388.96,166.376Z" style="fill:rgb(204,204,204);"/>
    </g>
    <g transform="matrix(1,0,0,1,-48.8765,-46.7387)">
        <path d="M374.511,183.296L360.164,184.91C359.697,184.963 359.286,184.525 359.025,183.946C358.91,183.692 358.825,183.413 358.775,183.132C358.726,182.851 358.712,182.57 358.738,182.31C358.793,181.764 359.028,181.323 359.499,181.27C364.289,180.731 369.079,180.192 373.869,179.653C374.401,179.593 374.292,178.662 373.668,178.732L359.343,180.344C358.35,180.456 357.866,181.232 357.772,182.183C357.738,182.522 357.756,182.885 357.819,183.243C357.882,183.602 357.99,183.957 358.136,184.282C358.568,185.236 359.336,185.947 360.32,185.836C365.103,185.298 369.885,184.76 374.667,184.222C375.189,184.163 375.033,183.237 374.511,183.296" style="fill:rgb(255,33,36);fill-rule:nonzero;"/>
    </g>
    <g transform="matrix(1,0,0,1,-48.8765,-46.6784)">
        <path d="M373.395,179.646L373.504,180.297L372.728,180.591L373.495,180.784L373.609,181.464L370.587,182.055L373.818,182.34L373.966,183.297L360.164,184.85C359.697,184.902 359.286,184.465 359.025,183.886C358.91,183.631 358.825,183.352 358.775,183.071C358.726,182.791 358.712,182.51 358.738,182.249C358.793,181.704 359.028,181.263 359.499,181.21L373.395,179.646Z" style="fill:rgb(242,242,242);"/>
    </g>
    <g transform="matrix(1,0,0,1,-48.8765,-47.1055)">
        <path d="M358.81,182.304L365.156,182.121L358.726,182.855C358.728,182.795 358.732,182.735 358.738,182.676C358.751,182.545 358.775,182.42 358.81,182.304" style="fill:rgb(204,204,204);"/>
    </g>
    <g transform="matrix(1,0,0,1,-48.8765,-45.375)">
        <path d="M358.751,181.608L362.273,181.348L358.801,181.897C358.791,181.854 358.783,181.811 358.775,181.768C358.766,181.715 358.758,181.662 358.751,181.608" style="fill:rgb(204,204,204);"/>
    </g>
    <g transform="matrix(1,0,0,1,-48.8765,-50.581)">
        <path d="M373.425,183.732L373.495,184.147L367.182,184.719L373.425,183.732Z" style="fill:rgb(204,204,204);"/>
    </g>
    <g transform="matrix(1,0,0,1,-48.8765,-45.4013)">
        <path d="M373.853,181.287L373.936,181.826L370.744,181.984L373.853,181.287Z" style="fill:rgb(204,204,204);"/>
    </g>
    <g transform="matrix(1,0,0,1,-48.8765,-31.8038)">
        <path d="M376.391,176.708L361.977,176.295C361.507,176.282 361.181,175.841 361.027,175.293C360.96,175.053 360.925,174.794 360.927,174.539C360.929,174.284 360.965,174.032 361.037,173.804C361.188,173.327 361.499,172.966 361.973,172.98C366.784,173.117 371.597,173.255 376.409,173.393C376.944,173.408 377.003,172.567 376.376,172.55L361.985,172.138C360.986,172.11 360.372,172.736 360.109,173.567C360.015,173.864 359.967,174.189 359.966,174.515C359.963,174.841 360.006,175.17 360.092,175.477C360.347,176.38 360.976,177.109 361.964,177.137C366.769,177.275 371.574,177.412 376.378,177.55C376.902,177.564 376.915,176.722 376.391,176.708" style="fill:rgb(191,125,189);fill-rule:nonzero;"/>
    </g>
    <g transform="matrix(1,0,0,1,-48.8765,-31.8194)">
        <path d="M375.933,173.395L375.924,173.986L375.107,174.147L375.828,174.418L375.819,175.036L372.738,175.171L375.867,175.84L375.843,176.708L361.977,176.311C361.507,176.298 361.181,175.857 361.027,175.309C360.96,175.068 360.925,174.81 360.927,174.555C360.929,174.3 360.965,174.047 361.037,173.82C361.188,173.343 361.499,172.982 361.973,172.996L375.933,173.395Z" style="fill:rgb(242,242,242);"/>
    </g>
    <g transform="matrix(1,0,0,1,-48.8765,-33.8576)">
        <path d="M361.174,175.537L367.456,176.19L360.994,176.015C361.006,175.962 361.021,175.909 361.037,175.858C361.074,175.743 361.119,175.635 361.174,175.537" style="fill:rgb(204,204,204);"/>
    </g>
    <g transform="matrix(1,0,0,1,-48.8765,-32.4266)">
        <path d="M360.932,175.017L364.446,175.239L360.929,175.279C360.927,175.24 360.927,175.201 360.927,175.162C360.927,175.114 360.929,175.065 360.932,175.017" style="fill:rgb(204,204,204);"/>
    </g>
    <g transform="matrix(1,0,0,1,-48.8765,-34.0095)">
        <path d="M375.931,175.751L375.925,176.128L369.607,175.825L375.931,175.751Z" style="fill:rgb(204,204,204);"/>
    </g>
    <g transform="matrix(1,0,0,1,-48.8765,-28.9335)">
        <path d="M375.861,173.157L375.848,173.646L372.677,173.376L375.861,173.157Z" style="fill:rgb(204,204,204);"/>
    </g>
    <g transform="matrix(1,0,0,1,-48.8765,-22.9858)">
        <path d="M375.817,171.943L361.404,171.609C360.933,171.599 360.607,171.241 360.454,170.797C360.385,170.603 360.351,170.394 360.353,170.187C360.355,169.98 360.392,169.777 360.463,169.592C360.615,169.206 360.926,168.913 361.399,168.924C366.211,169.036 371.023,169.147 375.835,169.258C376.371,169.271 376.429,168.59 375.803,168.576L361.411,168.242C360.413,168.219 359.798,168.727 359.535,169.4C359.441,169.64 359.394,169.903 359.392,170.167C359.39,170.432 359.432,170.698 359.519,170.947C359.773,171.677 360.402,172.268 361.391,172.29C366.196,172.402 371,172.513 375.805,172.624C376.329,172.636 376.341,171.955 375.817,171.943" style="fill:rgb(64,168,245);fill-rule:nonzero;"/>
    </g>
    <g transform="matrix(1,0,0,1,-48.8765,-22.998)">
        <path d="M375.359,169.26L375.351,169.739L374.533,169.869L375.254,170.089L375.245,170.589L372.165,170.699L375.294,171.24L375.269,171.943L361.404,171.621C360.933,171.611 360.607,171.253 360.454,170.81C360.385,170.615 360.351,170.406 360.353,170.199C360.355,169.992 360.392,169.789 360.463,169.604C360.615,169.218 360.926,168.926 361.399,168.936L375.359,169.26Z" style="fill:rgb(242,242,242);"/>
    </g>
    <g transform="matrix(1,0,0,1,-48.8765,-24.6483)">
        <path d="M360.601,170.995L366.883,171.523L360.42,171.381C360.433,171.339 360.448,171.296 360.463,171.254C360.5,171.161 360.546,171.074 360.601,170.995" style="fill:rgb(204,204,204);"/>
    </g>
    <g transform="matrix(1,0,0,1,-48.8765,-23.4904)">
        <path d="M360.358,170.574L363.872,170.754L360.355,170.786C360.354,170.755 360.353,170.723 360.353,170.692C360.354,170.652 360.355,170.613 360.358,170.574" style="fill:rgb(204,204,204);"/>
    </g>
    <g transform="matrix(1,0,0,1,-48.8765,-24.7713)">
        <path d="M375.357,171.168L375.351,171.473L369.033,171.228L375.357,171.168Z" style="fill:rgb(204,204,204);"/>
    </g>
    <g transform="matrix(1,0,0,1,-48.8765,-20.6612)">
        <path d="M375.288,169.068L375.274,169.464L372.103,169.245L375.288,169.068Z" style="fill:rgb(204,204,204);"/>
    </g>
    <g transform="matrix(1,0,0,1,-48.8765,-13.6978)">
        <path d="M360.494,167.842L374.908,167.388C375.378,167.373 375.704,166.888 375.858,166.286C375.925,166.021 375.96,165.737 375.958,165.456C375.956,165.175 375.92,164.898 375.848,164.648C375.697,164.123 375.385,163.726 374.912,163.741C370.1,163.892 365.288,164.043 360.476,164.195C359.941,164.212 359.883,163.287 360.509,163.267L374.9,162.815C375.898,162.783 376.513,163.473 376.776,164.387C376.87,164.714 376.917,165.071 376.919,165.43C376.922,165.788 376.879,166.151 376.792,166.488C376.538,167.481 375.909,168.284 374.921,168.314C370.116,168.466 365.311,168.616 360.506,168.768C359.983,168.784 359.97,167.858 360.494,167.842" style="fill:rgb(242,89,38);fill-rule:nonzero;"/>
    </g>
    <g transform="matrix(1,0,0,1,-48.8765,-13.7151)">
        <path d="M360.952,164.197L360.961,164.848L361.778,165.025L361.057,165.322L361.066,166.003L364.147,166.152L361.018,166.887L361.042,167.842L374.908,167.406C375.378,167.391 375.704,166.906 375.858,166.304C375.925,166.038 375.96,165.754 375.958,165.473C375.956,165.192 375.92,164.915 375.848,164.665C375.697,164.14 375.385,163.743 374.912,163.758L360.952,164.197Z" style="fill:rgb(242,242,242);"/>
    </g>
    <g transform="matrix(1,0,0,1,-48.8765,-15.9581)">
        <path d="M375.711,166.555L369.428,167.273L375.891,167.081C375.878,167.021 375.864,166.964 375.848,166.908C375.811,166.782 375.766,166.662 375.711,166.555" style="fill:rgb(204,204,204);"/>
    </g>
    <g transform="matrix(1,0,0,1,-48.8765,-14.3844)">
        <path d="M375.953,165.983L372.439,166.227L375.956,166.272C375.958,166.229 375.958,166.185 375.958,166.143C375.958,166.089 375.956,166.036 375.953,165.983" style="fill:rgb(204,204,204);"/>
    </g>
    <g transform="matrix(1,0,0,1,-48.8765,-16.1254)">
        <path d="M360.954,166.79L360.96,167.205L367.278,166.871L360.954,166.79Z" style="fill:rgb(204,204,204);"/>
    </g>
    <g transform="matrix(1,0,0,1,-48.8765,-10.5406)">
        <path d="M361.023,163.937L361.037,164.474L364.208,164.177L361.023,163.937Z" style="fill:rgb(204,204,204);"/>
    </g>
    <g transform="matrix(1,0,0,1,-48.8765,-31.4628)">
        <path d="M356.219,182.448L361.652,169.09C361.829,168.654 361.518,168.16 361.03,167.775C360.815,167.605 360.569,167.459 360.312,167.347C360.054,167.234 359.786,167.155 359.528,167.119C358.988,167.045 358.498,167.168 358.32,167.606C356.506,172.066 354.691,176.525 352.878,180.985C352.676,181.481 351.807,181.159 352.043,180.579L357.469,167.242C357.845,166.316 358.724,166.035 359.667,166.165C360.003,166.212 360.349,166.313 360.678,166.457C361.006,166.601 361.321,166.787 361.594,167.003C362.398,167.637 362.876,168.538 362.503,169.455C360.692,173.907 358.881,178.36 357.07,182.813C356.873,183.298 356.021,182.934 356.219,182.448" style="fill:rgb(122,199,69);fill-rule:nonzero;"/>
    </g>
    <g transform="matrix(1,0,0,1,-48.8765,-31.8106)">
        <path d="M353.057,180.891L353.656,181.148L354.149,180.473L354.129,181.252L354.754,181.52L356.14,178.765L355.543,181.923L356.425,182.288L361.652,169.438C361.829,169.002 361.518,168.508 361.03,168.123C360.815,167.953 360.569,167.807 360.312,167.694C360.054,167.582 359.786,167.503 359.528,167.467C358.988,167.392 358.498,167.515 358.32,167.954L353.057,180.891Z" style="fill:rgb(242,242,242);"/>
    </g>
    <g transform="matrix(1,0,0,1,-48.8765,-40.5669)">
        <path d="M359.15,176.205L357.258,182.239L359.704,176.254C359.645,176.242 359.587,176.231 359.528,176.223C359.398,176.205 359.271,176.198 359.15,176.205" style="fill:rgb(204,204,204);"/>
    </g>
    <g transform="matrix(1,0,0,1,-48.8765,-42.9123)">
        <path d="M360.164,178.736L358.962,182.046L360.429,178.85C360.39,178.831 360.351,178.813 360.312,178.796C360.263,178.775 360.214,178.755 360.164,178.736" style="fill:rgb(204,204,204);"/>
    </g>
    <g transform="matrix(1,0,0,1,-48.8765,-25.148)">
        <path d="M353.226,174.301L353.607,174.464L355.865,168.554L353.226,174.301Z" style="fill:rgb(204,204,204);"/>
    </g>
    <g transform="matrix(1,0,0,1,-48.8765,-20.0815)">
        <path d="M355.749,170.279L356.247,170.485L357.261,167.467L355.749,170.279Z" style="fill:rgb(204,204,204);"/>
    </g>
    <g transform="matrix(1,0,0,1,-48.8765,-10.3166)">
        <path d="M371.127,161.124C371.127,161.124 373.051,164.679 371.127,166.611L346.5,167.063L345.033,165.378L345.851,165.255L346.669,166.591C346.669,166.591 347.511,163.761 346.669,162.261L345.803,163.432L345.057,163.576L346.428,161.439L371.127,161.124Z" style="fill:rgb(252,237,33);"/>
    </g>
    <g transform="matrix(1,0,0,1,-48.8765,-29.3805)">
        <path d="M403.974,185.467C403.974,185.467 399.733,187.662 397.306,185.885L395.735,161.297L397.722,159.702L397.906,160.51L396.317,161.429C396.317,161.429 399.789,162.056 401.577,161.099L400.118,160.323L399.912,159.588L402.566,160.796L403.974,185.467Z" style="fill:rgb(122,199,69);"/>
    </g>
    <g transform="matrix(1,0,0,1,-48.8765,1.7732)">
        <path d="M86.846,153.555L86.846,189.542C86.846,191.948 85.384,193.41 82.475,193.913L82.17,193.913C79.704,193.913 78.18,192.375 77.617,189.313L77.617,132.25C77.967,128.946 79.368,127.301 81.79,127.301L82.46,127.301C84.927,127.301 86.572,129.052 87.394,132.57L107.877,178.379C108.152,177.328 112.644,166.866 121.37,146.992L129.761,128.915C130.767,127.834 131.863,127.301 133.066,127.301L133.721,127.301C136.172,127.301 137.574,128.946 137.924,132.25L137.924,189.313C137.361,192.375 135.838,193.913 133.371,193.913L133.066,193.913C130.157,193.41 128.695,191.948 128.695,189.542L128.695,153.51C117.624,178.562 111.852,191.506 111.334,192.299C110.116,193.38 108.928,193.913 107.771,193.913C105.151,193.913 103.004,191.263 101.298,185.963L86.846,153.555ZM150.823,133.788C153.762,134.534 155.24,135.936 155.24,137.976L155.24,138.966C155.24,141.312 153.656,142.713 150.473,143.154C148.173,143.154 146.681,141.601 145.965,138.479C146.589,135.357 148.203,133.788 150.823,133.788ZM150.823,145.286C153.762,146.017 155.24,147.418 155.24,149.474L155.24,189.542C155.24,191.948 153.747,193.41 150.777,193.913L150.519,193.913C148.082,193.913 146.574,192.39 146.01,189.359L146.01,150.372C146.361,146.977 147.975,145.286 150.823,145.286ZM167.788,127.575L168.596,127.575C171.413,128.169 172.829,129.509 172.829,131.595L172.829,184.684L175.022,184.684C177.185,184.684 178.585,186.146 179.21,189.1L179.21,189.451C178.707,192.42 177.185,193.913 174.657,193.913L168.154,193.913C165.687,193.913 164.164,192.39 163.6,189.359L163.6,132.478C163.951,129.204 165.352,127.575 167.788,127.575ZM205.815,145.759C212.029,145.759 217.648,148.104 222.674,152.809C227.456,157.85 229.846,163.515 229.846,169.835C229.846,178.851 225.598,185.948 217.1,191.095C213.384,192.968 209.79,193.913 206.302,193.913L204.962,193.913C198.49,193.913 192.474,190.882 186.916,184.806C183.489,179.978 181.783,174.983 181.783,169.835C181.783,162.008 185.225,155.444 192.125,150.175C196.526,147.236 201.094,145.759 205.815,145.759ZM191.103,169.348L191.103,170.155C191.103,175.729 193.8,180.039 199.175,183.115C201.079,184.105 203.119,184.592 205.328,184.592L206.302,184.592C212.044,184.592 216.445,181.592 219.506,175.607C220.192,173.75 220.526,171.937 220.526,170.155L220.526,169.348C220.526,164.719 218.394,160.82 214.145,157.622C211.678,155.931 208.846,155.079 205.633,155.079C199.373,155.079 194.759,158.383 191.82,165.008C191.348,166.561 191.103,168.008 191.103,169.348ZM240.583,122.184C243.629,122.961 245.152,124.438 245.152,126.6C244.466,136.758 243.324,141.844 241.71,141.844L240.445,142.195C237.979,142.195 236.623,139.926 236.38,135.403L235.481,127.057C236.136,123.813 237.842,122.184 240.583,122.184ZM278.214,177.952C278.184,177.359 277.574,176.993 276.371,176.871C261.325,173.521 253.299,171.374 252.279,170.46C249.217,168.145 247.695,165.267 247.695,161.856C247.695,157.211 250.938,152.825 257.411,148.652C260.99,146.779 264.507,145.85 267.995,145.85C276.142,145.85 282.585,149.611 287.305,157.135L287.489,158.779L287.489,159.053C287.489,161.581 285.965,163.074 282.935,163.515C280.909,163.515 279.036,162.084 277.315,159.236C274.604,156.586 271.498,155.261 267.995,155.261C263.411,155.261 259.817,157.409 257.243,161.688L257.152,162.13C257.152,162.724 258.431,163.135 260.99,163.333C273.782,166.44 280.833,168.236 282.173,168.739C285.828,171.145 287.671,174.206 287.671,177.892L287.671,178.029C287.671,183.115 284.061,187.715 276.874,191.811C273.752,193.212 270.462,193.913 267.005,193.913C259.863,193.913 253.847,190.562 248.944,183.877C248.319,182.978 247.999,182.125 247.999,181.288L247.999,180.298C247.999,177.892 249.644,176.506 252.903,176.156C254.487,176.156 256.345,177.694 258.492,180.755C261.111,183.192 264.172,184.41 267.675,184.41C271.848,184.41 275.289,182.46 278.031,178.577L278.214,177.952Z" style="fill:rgb(46,173,222);fill-rule:nonzero;"/>
    </g>
    <g transform="matrix(1,0,0,1,-48.8765,24.9821)">
        <path d="M449.981,122.55C456.195,122.55 461.814,124.895 466.84,129.6C471.622,134.641 474.012,140.306 474.012,146.626C474.012,155.642 469.764,162.739 461.266,167.886C457.55,169.759 453.956,170.704 450.468,170.704L449.128,170.704C442.656,170.704 436.64,167.673 431.082,161.597C427.656,156.769 425.95,151.774 425.95,146.626C425.95,138.799 429.391,132.235 436.29,126.966C440.691,124.027 445.26,122.55 449.981,122.55ZM435.27,146.139L435.27,146.946C435.27,152.52 437.965,156.83 443.342,159.906C445.245,160.896 447.285,161.383 449.494,161.383L450.468,161.383C456.21,161.383 460.611,158.383 463.672,152.398C464.357,150.541 464.693,148.728 464.693,146.946L464.693,146.139C464.693,141.51 462.56,137.611 458.311,134.413C455.844,132.722 453.012,131.87 449.798,131.87C443.539,131.87 438.925,135.174 435.985,141.799C435.514,143.352 435.27,144.799 435.27,146.139ZM516.639,165.769C512.435,169.059 507.805,170.704 502.75,170.704L501.592,170.704C494.206,170.704 487.795,167.109 482.373,159.906C479.875,156.007 478.627,151.241 478.627,145.622L478.627,127.271C478.992,123.874 480.607,122.184 483.515,122.184C486.409,122.93 487.855,124.331 487.855,126.372L487.855,144.266C487.855,151.393 489.835,156.145 493.795,158.536C496.354,160.5 499.171,161.475 502.277,161.475C508.186,161.475 512.664,158.414 515.71,152.292C516.334,150.297 516.639,148.287 516.639,146.261L516.639,126.737C517.233,123.707 518.847,122.184 521.481,122.184C524.405,122.839 525.867,124.346 525.867,126.692L525.867,166.501C525.867,168.739 524.405,170.14 521.481,170.704L521.024,170.704C518.101,170.171 516.639,168.663 516.639,166.181L516.639,165.769ZM559.935,154.743C559.905,154.15 559.295,153.784 558.092,153.662C543.045,150.312 535.02,148.165 533.999,147.251C530.938,144.936 529.415,142.058 529.415,138.647C529.415,134.002 532.659,129.616 539.132,125.443C542.711,123.57 546.228,122.641 549.716,122.641C557.864,122.641 564.305,126.402 569.026,133.926L569.21,135.57L569.21,135.844C569.21,138.372 567.686,139.865 564.656,140.306C562.63,140.306 560.757,138.875 559.036,136.027C556.325,133.377 553.219,132.052 549.716,132.052C545.132,132.052 541.538,134.2 538.964,138.479L538.873,138.921C538.873,139.515 540.152,139.926 542.711,140.124C555.503,143.231 562.554,145.027 563.894,145.53C567.549,147.936 569.391,150.997 569.391,154.683L569.391,154.82C569.391,159.906 565.783,164.506 558.595,168.602C555.473,170.003 552.183,170.704 548.726,170.704C541.584,170.704 535.568,167.353 530.665,160.668C530.04,159.769 529.72,158.916 529.72,158.079L529.72,157.089C529.72,154.683 531.365,153.297 534.624,152.947C536.208,152.947 538.066,154.485 540.213,157.546C542.832,159.983 545.893,161.201 549.396,161.201C553.569,161.201 557.01,159.251 559.752,155.368L559.935,154.743ZM595.753,122.275C605.059,122.275 612.292,126.692 617.439,135.524C619.222,138.996 620.12,142.758 620.12,146.81L620.12,147.784C619.587,150.815 618.079,152.337 615.612,152.337L582.199,152.337C583.052,155.276 585.474,157.82 589.464,159.952C591.809,160.85 594.017,161.292 596.073,161.292C598.449,161.292 601.297,160.454 604.632,158.794L606.064,158.794C608.85,159.328 610.252,160.789 610.252,163.18L610.252,163.668C610.252,167.186 605.835,169.531 597.002,170.704L595.753,170.704C587.073,170.704 580.113,166.638 574.875,158.521C572.757,154.683 571.707,150.662 571.707,146.459C571.707,137.596 575.88,130.545 584.24,125.306C588.322,123.281 592.159,122.275 595.753,122.275ZM581.393,143.109L610.617,143.109C610.617,142.012 609.384,139.804 606.916,136.484C603.581,133.347 600.307,131.778 597.094,131.778L595.266,131.778C590.393,131.778 586.372,134.185 583.22,138.982C582.124,140.87 581.514,142.256 581.393,143.109" style="fill:rgb(38,54,107);fill-rule:nonzero;"/>
    </g>
    <g transform="matrix(1,0,0,1,-48.8765,118.08)">
        <path d="M429.908,97.397C429.878,98.613 429.908,99.932 429.997,101.354C430.085,102.895 430.129,103.521 430.129,103.219C430.269,104.523 430.623,105.179 431.169,105.179C431.374,105.179 431.603,105.076 431.846,104.869C432.097,104.663 432.288,104.56 432.436,104.56C432.723,104.56 432.871,104.693 432.871,104.958C432.871,105.253 432.664,105.555 432.252,105.864C431.839,106.174 431.382,106.329 430.881,106.329C429.642,106.329 428.876,105.179 428.581,102.88C428.434,101.76 428.361,99.784 428.361,96.955C428.361,94.449 428.522,91.383 428.847,87.757C426.724,88.789 423.319,90.941 418.632,94.213C418.455,94.301 418.263,94.346 418.058,94.346C417.703,94.346 417.527,94.228 417.527,93.992C417.527,93.667 418.515,92.842 420.489,91.516C422.612,90.071 424.219,89.039 425.309,88.42C427.284,87.3 429.142,86.475 430.881,85.944C433.446,85.178 435.7,84.794 437.646,84.794C440.447,84.794 441.847,85.62 441.847,87.271C441.847,88.362 441.338,89.592 440.329,90.963C439.312,92.334 438.03,93.594 436.474,94.744C434.418,96.306 432.229,97.19 429.908,97.397ZM429.908,96.247C430.939,96.159 431.779,96.011 432.428,95.805C433.549,95.451 434.684,94.81 435.833,93.896C436.777,93.152 437.691,92.223 438.575,91.095C439.636,89.703 440.167,88.568 440.167,87.676C440.167,86.519 439.238,85.944 437.381,85.944C435.199,85.944 432.959,86.327 430.659,87.101C430.159,89.615 429.908,92.665 429.908,96.247ZM445.959,100.713C446.666,98.296 447.507,96.483 448.479,95.274C449.57,93.918 450.558,93.24 451.442,93.24C452.356,93.24 452.813,93.741 452.813,94.744C452.813,95.274 452.547,95.539 452.017,95.539C451.693,95.539 451.412,95.311 451.177,94.847C451.088,94.545 451,94.39 450.912,94.39C450.44,94.39 449.718,95.112 448.745,96.564C447.625,98.222 447.065,99.91 447.065,101.627C447.065,102.364 447.183,103.167 447.418,104.022C447.595,104.619 447.684,104.943 447.684,105.002C447.684,105.179 447.581,105.378 447.374,105.599C447.168,105.82 446.976,105.931 446.799,105.931C446.386,105.931 446.033,105.371 445.738,104.251C444.736,100.507 443.763,98.06 442.82,96.91C442.348,96.439 442.112,96.203 442.112,96.203C442.112,96.026 442.289,95.827 442.643,95.606C442.997,95.385 443.277,95.274 443.483,95.274C443.895,95.274 444.264,95.717 444.588,96.601C444.971,97.78 445.428,99.151 445.959,100.713ZM455.289,101.45C455.171,103.668 455.805,104.781 457.191,104.781C458.104,104.781 459.387,104.103 461.038,102.754C461.598,102.305 461.951,102.084 462.098,102.084C462.305,102.084 462.408,102.202 462.408,102.438C462.408,102.703 462.114,103.101 461.524,103.632C459.814,105.165 458.296,105.931 456.97,105.931C454.877,105.931 453.83,104.531 453.83,101.73C453.83,99.844 454.198,98.031 454.936,96.291C455.79,94.228 456.91,93.196 458.296,93.196C459.269,93.196 459.755,93.712 459.755,94.751C459.755,95.783 459.357,96.925 458.561,98.17C457.706,99.497 456.616,100.595 455.289,101.45ZM455.289,99.962C456.085,99.431 456.815,98.635 457.478,97.574C458.141,96.512 458.473,95.701 458.473,95.141C458.473,94.67 458.296,94.434 457.942,94.434C457.411,94.434 456.866,95.097 456.306,96.424C455.805,97.574 455.466,98.753 455.289,99.962ZM471.694,96.866C471.724,97.073 471.621,97.256 471.385,97.419C471.142,97.581 470.95,97.662 470.802,97.662C470.625,97.662 470.382,97.382 470.065,96.822C469.756,96.262 469.24,95.79 468.525,95.407C467.935,95.112 467.426,94.965 467.014,94.965C466.712,94.965 466.565,95.068 466.565,95.274C466.565,95.805 467.464,97.367 469.262,99.962C469.763,100.669 470.25,101.362 470.721,102.04C471.37,103.042 471.694,103.823 471.694,104.383C471.694,104.943 471.472,105.415 471.031,105.798C470.588,106.182 469.984,106.373 469.218,106.373C467.685,106.373 466.233,105.887 464.862,104.914C463.491,103.941 462.806,102.939 462.806,101.907C462.806,101.022 463.16,100.581 463.867,100.581C464.133,100.581 464.265,100.698 464.265,100.934C464.265,100.986 464.221,101.163 464.133,101.457C464.044,101.745 464,101.907 464,101.936C464,102.666 464.649,103.411 465.946,104.17C467.154,104.869 468.245,105.223 469.218,105.223C469.954,105.223 470.323,105.002 470.323,104.56C470.323,104.096 469.586,102.799 468.113,100.684C466.756,98.716 465.901,97.441 465.547,96.851C465.106,96.092 464.884,95.473 464.884,95.002C464.884,94.272 465.371,93.903 466.351,93.903C467.567,93.903 468.739,94.235 469.867,94.898C470.994,95.562 471.606,96.218 471.694,96.866ZM479.388,102.592L480.847,100.713C481.024,100.536 481.171,100.448 481.289,100.448C481.525,100.448 481.643,100.581 481.643,100.846C481.643,101.317 481.083,102.216 479.963,103.543C478.666,105.135 477.398,105.931 476.16,105.931C474.509,105.931 473.684,104.825 473.684,102.614C473.684,100.581 474.339,98.569 475.651,96.579C476.963,94.589 478.223,93.594 479.432,93.594C480.14,93.594 480.493,93.844 480.493,94.346C480.493,94.641 480.339,94.958 480.029,95.296C479.719,95.636 479.447,95.805 479.211,95.805C479.004,95.805 478.901,95.731 478.901,95.591C478.901,95.539 478.953,95.407 479.056,95.208C479.159,95.009 479.211,94.898 479.211,94.869C479.211,94.788 479.152,94.744 479.034,94.744C478.503,94.744 477.751,95.525 476.779,97.087C475.717,98.885 475.187,100.654 475.187,102.394C475.187,103.985 475.585,104.781 476.381,104.781C477.265,104.781 478.268,104.051 479.388,102.592ZM486.64,87.271L486.507,88.332C486.271,89.836 485.858,93.343 485.269,98.856C485.121,100.566 484.945,102.571 484.738,104.869C485.121,103.749 485.822,101.936 486.846,99.431C487.989,96.601 488.689,95.038 488.946,94.744C489.212,94.449 489.58,94.301 490.045,94.301C490.192,94.301 490.28,94.361 490.31,94.478L490.31,96.203C490.31,98.148 490.546,99.873 491.01,101.376C491.099,101.789 491.29,102.32 491.578,102.969C492.02,103.941 492.44,104.428 492.845,104.428C493.052,104.428 493.28,104.324 493.523,104.118C493.773,103.912 493.958,103.808 494.068,103.808C494.305,103.808 494.422,103.912 494.422,104.118C494.422,104.383 494.223,104.67 493.825,104.98C493.427,105.29 493.008,105.445 492.565,105.445C491.592,105.445 490.752,104.589 490.045,102.88C489.367,101.288 488.998,99.431 488.939,97.308C487.76,100.109 486.611,102.939 485.49,105.798C485.225,106.506 485.026,106.933 484.893,107.08C484.76,107.228 484.532,107.302 484.208,107.302C483.707,107.302 483.456,107.169 483.456,106.904C483.456,105.96 483.655,102.696 484.053,97.109C484.451,91.523 484.709,88.406 484.827,87.757C484.856,87.551 485.07,87.367 485.468,87.204C485.866,87.042 486.154,86.961 486.33,86.961C486.536,86.961 486.64,87.065 486.64,87.271ZM499.529,94.478C499.853,94.272 500.222,94.169 500.635,94.169C501.63,94.169 502.536,94.611 503.362,95.495C504.238,96.468 504.681,97.692 504.681,99.165C504.681,100.698 504.194,102.143 503.229,103.499C502.146,105.032 500.79,105.798 499.176,105.798C497.886,105.798 496.861,105.223 496.095,104.074C495.395,103.042 495.041,101.775 495.041,100.271C495.041,98.65 495.454,97.205 496.272,95.937C497.068,94.758 497.93,94.169 498.873,94.169C499.102,94.169 499.323,94.272 499.529,94.478ZM499.817,95.318C499.699,95.908 499.434,96.203 499.021,96.203C498.933,96.203 498.844,96.159 498.756,96.07C498.49,95.834 498.284,95.717 498.136,95.717C497.783,95.717 497.429,96.085 497.075,96.822C496.633,97.647 496.412,98.605 496.412,99.696C496.412,101.199 496.766,102.394 497.473,103.278C498.092,104.074 498.83,104.472 499.684,104.472C500.569,104.472 501.394,104.015 502.16,103.108C502.927,102.194 503.31,101.096 503.31,99.806C503.31,98.488 502.979,97.382 502.315,96.483C501.652,95.591 500.82,95.2 499.817,95.318ZM510.982,94.478C511.306,94.272 511.675,94.169 512.087,94.169C513.082,94.169 513.989,94.611 514.814,95.495C515.691,96.468 516.133,97.692 516.133,99.165C516.133,100.698 515.647,102.143 514.681,103.499C513.598,105.032 512.242,105.798 510.628,105.798C509.339,105.798 508.314,105.223 507.548,104.074C506.848,103.042 506.494,101.775 506.494,100.271C506.494,98.65 506.906,97.205 507.724,95.937C508.52,94.758 509.383,94.169 510.326,94.169C510.555,94.169 510.775,94.272 510.982,94.478ZM511.269,95.318C511.152,95.908 510.886,96.203 510.473,96.203C510.385,96.203 510.296,96.159 510.208,96.07C509.943,95.834 509.736,95.717 509.589,95.717C509.235,95.717 508.881,96.085 508.528,96.822C508.085,97.647 507.865,98.605 507.865,99.696C507.865,101.199 508.218,102.394 508.926,103.278C509.545,104.074 510.282,104.472 511.137,104.472C512.021,104.472 512.847,104.015 513.613,103.108C514.379,102.194 514.763,101.096 514.763,99.806C514.763,98.488 514.431,97.382 513.768,96.483C513.105,95.591 512.272,95.2 511.269,95.318ZM522.589,105.268C522.589,105.621 522.265,105.798 521.616,105.798C520.29,105.798 519.435,104.339 519.052,101.421C518.757,99.239 518.609,96.35 518.609,92.754C518.609,90.012 518.735,88.465 518.985,88.111C519.236,87.757 519.701,87.58 520.378,87.58C520.644,87.58 520.776,87.713 520.776,87.978C520.776,87.89 520.651,88.523 520.4,89.879C520.12,91.413 519.981,93.402 519.981,95.849C519.981,100.802 520.4,103.705 521.241,104.56C521.477,104.796 521.852,104.943 522.361,105.002C522.516,105.032 522.589,105.12 522.589,105.268ZM530.46,109.822L532.671,108.186C533.172,106.889 533.703,104.678 534.263,101.553C534.853,98.104 535.147,95.274 535.147,93.063C535.147,90.027 534.631,88.008 533.6,87.005C533.069,86.475 532.804,86.136 532.804,85.988C532.804,85.546 533.319,85.325 534.351,85.325C535.973,85.325 536.784,87.757 536.784,92.621C536.784,94.478 536.533,96.888 536.031,99.851C535.531,102.813 534.97,105.223 534.351,107.08C538.508,104.28 542.002,102.88 544.831,102.88C546.158,102.88 547.19,103.137 547.926,103.646C548.457,104 548.723,104.317 548.723,104.589C548.723,104.767 548.575,104.98 548.28,105.216C547.985,105.459 547.735,105.577 547.529,105.577C547.322,105.577 546.969,105.348 546.467,104.892C545.966,104.435 545.288,104.206 544.433,104.206C542.871,104.206 540.822,104.885 538.287,106.24C535.928,107.508 533.806,108.952 531.92,110.574C531.418,111.016 531.094,111.237 530.947,111.237C530.77,111.237 530.556,111.126 530.305,110.906C530.055,110.684 529.93,110.53 529.93,110.441C529.93,110.294 530.107,110.087 530.46,109.822ZM551.199,99.962C551.199,103.175 551.611,104.855 552.437,105.002C552.908,105.091 553.144,105.209 553.144,105.356C553.144,105.887 552.717,106.152 551.861,106.152C551.066,106.152 550.521,105.43 550.225,103.985C549.961,102.688 549.828,100.787 549.828,98.281C549.828,96.336 549.961,95.23 550.225,94.965C550.609,94.581 551.021,94.39 551.464,94.39C551.759,94.39 551.906,94.523 551.906,94.788C551.906,94.523 551.788,94.935 551.552,96.026C551.317,97.117 551.199,98.428 551.199,99.962ZM551.641,90.056C551.641,90.469 551.655,90.749 551.685,90.896C551.685,90.926 551.699,91.007 551.729,91.14C551.759,91.272 551.774,91.354 551.774,91.383C551.774,91.648 551.552,91.781 551.11,91.781C550.609,91.781 550.329,91.324 550.27,90.41C550.27,90.557 550.27,89.939 550.27,88.553C550.27,87.963 550.712,87.669 551.597,87.669C551.861,87.669 551.995,87.757 551.995,87.934C551.995,88.022 551.906,88.376 551.729,88.995C551.67,89.319 551.641,89.673 551.641,90.056ZM558.627,95.981L558.627,91.427L558.627,89.703C558.627,89.349 558.855,89.039 559.305,88.774C559.615,88.597 559.865,88.509 560.064,88.509C560.344,88.509 560.484,88.686 560.484,89.039L560.197,91.582C560.146,92.171 560.079,93.417 559.998,95.318C562.069,94.375 563.439,93.903 564.118,93.903C564.405,93.903 564.552,93.985 564.552,94.154C564.552,94.375 564.376,94.626 564.029,94.906C563.683,95.178 563.455,95.318 563.336,95.318L562.865,95.318C562.312,95.318 561.354,95.717 559.998,96.512C559.939,98.37 559.969,100.315 560.086,102.349C560.234,104.088 560.72,104.958 561.546,104.958C562.135,104.958 562.74,104.413 563.359,103.322C563.683,102.762 563.934,102.482 564.11,102.482C564.376,102.482 564.508,102.644 564.508,102.969C564.508,103.44 564.213,104.029 563.624,104.737C562.887,105.592 562.076,106.019 561.192,106.019C559.954,106.019 559.187,104.885 558.893,102.614C558.745,101.465 558.642,99.667 558.583,97.22C557.728,97.751 556.844,98.296 555.93,98.856C555.576,98.856 555.399,98.605 555.399,98.104C555.399,97.957 555.502,97.824 555.709,97.706C556.947,96.91 557.92,96.336 558.627,95.981ZM568.311,101.45C568.193,103.668 568.827,104.781 570.212,104.781C571.126,104.781 572.408,104.103 574.059,102.754C574.62,102.305 574.973,102.084 575.12,102.084C575.327,102.084 575.43,102.202 575.43,102.438C575.43,102.703 575.135,103.101 574.546,103.632C572.836,105.165 571.318,105.931 569.991,105.931C567.898,105.931 566.852,104.531 566.852,101.73C566.852,99.844 567.22,98.031 567.957,96.291C568.812,94.228 569.932,93.196 571.318,93.196C572.29,93.196 572.777,93.712 572.777,94.751C572.777,95.783 572.379,96.925 571.583,98.17C570.728,99.497 569.638,100.595 568.311,101.45ZM568.311,99.962C569.107,99.431 569.837,98.635 570.5,97.574C571.163,96.512 571.495,95.701 571.495,95.141C571.495,94.67 571.318,94.434 570.964,94.434C570.433,94.434 569.888,95.097 569.328,96.424C568.827,97.574 568.488,98.753 568.311,99.962ZM580.249,100.713C580.957,98.296 581.797,96.483 582.77,95.274C583.86,93.918 584.849,93.24 585.733,93.24C586.647,93.24 587.104,93.741 587.104,94.744C587.104,95.274 586.838,95.539 586.307,95.539C585.983,95.539 585.703,95.311 585.467,94.847C585.379,94.545 585.291,94.39 585.202,94.39C584.73,94.39 584.008,95.112 583.036,96.564C581.915,98.222 581.355,99.91 581.355,101.627C581.355,102.364 581.473,103.167 581.709,104.022C581.886,104.619 581.975,104.943 581.975,105.002C581.975,105.179 581.871,105.378 581.665,105.599C581.458,105.82 581.267,105.931 581.09,105.931C580.677,105.931 580.323,105.371 580.029,104.251C579.026,100.507 578.054,98.06 577.11,96.91C576.639,96.439 576.402,96.203 576.402,96.203C576.402,96.026 576.579,95.827 576.933,95.606C577.287,95.385 577.567,95.274 577.774,95.274C578.186,95.274 578.555,95.717 578.879,96.601C579.262,97.78 579.719,99.151 580.249,100.713ZM594.93,94.346C594.665,93.373 594.532,92.901 594.532,92.93C594.532,92.68 594.709,92.481 595.063,92.341C595.328,92.201 595.579,92.135 595.815,92.135C596.139,92.135 596.301,92.341 596.301,92.754C596.301,94.7 596.522,96.91 596.964,99.387C597.436,102.04 597.937,103.72 598.467,104.428C598.467,104.457 598.63,104.589 598.954,104.825C599.278,105.061 599.44,105.209 599.44,105.268C599.44,105.651 599.219,105.842 598.777,105.842C597.834,105.842 597.112,105.091 596.61,103.588C596.05,101.907 595.637,100.05 595.372,98.016C594.546,99.401 593.53,100.875 592.321,102.438C590.611,104.619 589.374,105.71 588.607,105.71C587.84,105.71 587.457,105.356 587.457,104.641C587.457,103.137 588.349,101.045 590.14,98.363C591.931,95.687 593.427,94.346 594.621,94.346C594.709,94.346 594.812,94.346 594.93,94.346ZM594.93,96.336C594.93,95.894 594.724,95.672 594.311,95.672C593.545,95.672 592.424,96.851 590.95,99.21C589.476,101.568 588.74,103.175 588.74,104.029C588.74,104.206 588.798,104.295 588.916,104.295C589.358,104.295 590.472,103.101 592.255,100.713C594.038,98.325 594.93,96.866 594.93,96.336ZM606.294,102.592L607.754,100.713C607.93,100.536 608.078,100.448 608.196,100.448C608.431,100.448 608.55,100.581 608.55,100.846C608.55,101.317 607.99,102.216 606.869,103.543C605.572,105.135 604.304,105.931 603.067,105.931C601.415,105.931 600.59,104.825 600.59,102.614C600.59,100.581 601.246,98.569 602.558,96.579C603.87,94.589 605.13,93.594 606.338,93.594C607.046,93.594 607.4,93.844 607.4,94.346C607.4,94.641 607.245,94.958 606.935,95.296C606.626,95.636 606.353,95.805 606.117,95.805C605.911,95.805 605.808,95.731 605.808,95.591C605.808,95.539 605.859,95.407 605.962,95.208C606.066,95.009 606.117,94.898 606.117,94.869C606.117,94.788 606.058,94.744 605.94,94.744C605.41,94.744 604.658,95.525 603.686,97.087C602.624,98.885 602.093,100.654 602.093,102.394C602.093,103.985 602.492,104.781 603.287,104.781C604.172,104.781 605.174,104.051 606.294,102.592ZM617.659,98.237C615.684,103.956 614.047,106.815 612.75,106.815C611.925,106.815 611.424,106.122 611.247,104.737C610.981,102.703 610.849,100.301 610.849,97.53C610.849,96.97 611.041,96.564 611.424,96.313C611.807,96.063 612.117,95.937 612.353,95.937C612.5,95.937 612.574,96.026 612.574,96.203C612.574,96.645 612.507,97.212 612.375,97.92C612.272,99.18 612.22,100.175 612.22,100.912C612.22,103.963 612.426,105.489 612.846,105.489C613.17,105.489 613.9,104.228 615.035,101.701C616.222,99.055 616.819,97.131 616.819,95.923C616.819,95.341 616.612,94.633 616.199,93.808C615.787,93.189 615.58,92.901 615.58,92.93C615.58,92.783 615.779,92.599 616.177,92.378C616.576,92.157 616.819,92.046 616.907,92.046C617.408,92.046 618.012,93.373 618.72,96.026C619.663,99.593 620.135,102.969 620.135,106.152C620.135,112.048 618.469,114.995 615.138,114.995C613.37,114.995 611.616,114.214 609.876,112.652C608.284,111.178 607.489,109.896 607.489,108.805C607.489,108.333 607.68,108.098 608.063,108.098C608.27,108.098 608.476,108.392 608.683,108.982C609.095,110.22 609.972,111.362 611.313,112.409C612.655,113.455 613.988,113.979 615.315,113.979C616.612,113.979 617.511,113.315 618.012,111.989C618.514,110.663 618.764,109.026 618.764,107.08C618.764,104.309 618.396,101.362 617.659,98.237" style="fill:rgb(46,173,222);fill-rule:nonzero;"/>
    </g>
    <g transform="matrix(1,0,0,1,-48.8765,-111.452)">
        <path d="M388.749,224.381L396.035,207.696C396.273,207.152 395.856,206.534 395.201,206.053C394.913,205.841 394.583,205.659 394.238,205.519C393.893,205.378 393.534,205.279 393.188,205.234C392.462,205.141 391.806,205.295 391.567,205.842C389.134,211.413 386.701,216.983 384.268,222.554C383.998,223.174 382.833,222.772 383.15,222.047L390.425,205.387C390.93,204.231 392.109,203.879 393.373,204.042C393.824,204.1 394.288,204.228 394.729,204.407C395.17,204.587 395.591,204.819 395.958,205.088C397.036,205.881 397.677,207.007 397.177,208.152C394.748,213.713 392.32,219.275 389.891,224.837C389.625,225.443 388.484,224.988 388.749,224.381" style="fill:rgb(122,199,69);fill-rule:nonzero;"/>
    </g>
    <g transform="matrix(1,0,0,1,-48.8765,-111.886)">
        <path d="M384.51,222.437L385.313,222.757L385.973,221.914L385.946,222.888L386.785,223.222L388.644,219.78L387.842,223.725L389.026,224.181L396.035,208.13C396.273,207.586 395.856,206.969 395.201,206.487C394.913,206.275 394.583,206.093 394.238,205.953C393.893,205.812 393.534,205.714 393.188,205.669C392.462,205.575 391.806,205.729 391.567,206.276L384.51,222.437Z" style="fill:rgb(242,242,242);"/>
    </g>
    <g transform="matrix(1,0,0,1,-48.8765,-122.823)">
        <path d="M392.681,216.582L390.143,224.118L393.423,216.643C393.344,216.628 393.266,216.615 393.188,216.605C393.013,216.582 392.842,216.574 392.681,216.582" style="fill:rgb(204,204,204);"/>
    </g>
    <g transform="matrix(1,0,0,1,-48.8765,-125.752)">
        <path d="M394.041,219.743L392.428,223.879L394.395,219.886C394.344,219.862 394.291,219.84 394.238,219.819C394.173,219.792 394.107,219.767 394.041,219.743" style="fill:rgb(204,204,204);"/>
    </g>
    <g transform="matrix(1,0,0,1,-48.8765,-103.563)">
        <path d="M384.735,214.204L385.247,214.408L388.275,207.025L384.735,214.204Z" style="fill:rgb(204,204,204);"/>
    </g>
    <g transform="matrix(1,0,0,1,-48.8765,-97.2348)">
        <path d="M388.12,209.181L388.787,209.438L390.147,205.667L388.12,209.181Z" style="fill:rgb(204,204,204);"/>
    </g>
    <g transform="matrix(1,0,0,1,-48.8765,-31.8356)">
        <path d="M350.519,182.635L355.952,169.277C356.13,168.841 355.819,168.347 355.33,167.961C355.116,167.792 354.87,167.645 354.612,167.534C354.355,167.421 354.087,167.342 353.829,167.306C353.288,167.231 352.799,167.354 352.621,167.793C350.807,172.253 348.992,176.712 347.178,181.172C346.976,181.668 346.108,181.346 346.344,180.766L351.769,167.428C352.145,166.503 353.025,166.221 353.967,166.352C354.304,166.398 354.65,166.5 354.978,166.644C355.308,166.787 355.621,166.973 355.894,167.189C356.699,167.824 357.177,168.724 356.804,169.642C354.992,174.094 353.181,178.547 351.37,183C351.173,183.485 350.322,183.12 350.519,182.635" style="fill:rgb(64,168,245);fill-rule:nonzero;"/>
    </g>
    <g transform="matrix(1,0,0,1,-48.8765,-32.1834)">
        <path d="M347.358,181.079L347.956,181.335L348.449,180.66L348.429,181.439L349.055,181.707L350.441,178.951L349.843,182.11L350.726,182.475L355.952,169.625C356.13,169.189 355.819,168.694 355.33,168.309C355.116,168.14 354.87,167.993 354.612,167.881C354.355,167.769 354.087,167.69 353.829,167.654C353.288,167.579 352.799,167.702 352.621,168.141L347.358,181.079Z" style="fill:rgb(242,242,242);"/>
    </g>
    <g transform="matrix(1,0,0,1,-48.8765,-40.9381)">
        <path d="M353.451,176.391L351.558,182.424L354.004,176.439C353.946,176.427 353.887,176.416 353.829,176.408C353.699,176.391 353.571,176.384 353.451,176.391" style="fill:rgb(204,204,204);"/>
    </g>
    <g transform="matrix(1,0,0,1,-48.8765,-43.2844)">
        <path d="M354.465,178.922L353.262,182.232L354.73,179.036C354.691,179.017 354.652,178.999 354.612,178.982C354.563,178.961 354.515,178.941 354.465,178.922" style="fill:rgb(204,204,204);"/>
    </g>
    <g transform="matrix(1,0,0,1,-48.8765,-25.5197)">
        <path d="M347.526,174.486L347.908,174.65L350.166,168.74L347.526,174.486Z" style="fill:rgb(204,204,204);"/>
    </g>
    <g transform="matrix(1,0,0,1,-48.8765,-20.4533)">
        <path d="M350.05,170.465L350.547,170.671L351.562,167.652L350.05,170.465Z" style="fill:rgb(204,204,204);"/>
    </g>
    <g transform="matrix(1,0,0,1,-48.8765,38.5632)">
        <path d="M312.364,126.466C312.364,126.466 308.046,131.825 309.485,136.383C310.924,140.941 312.045,142.46 312.045,142.46C312.045,142.46 307.725,140.981 304.406,143.78C304.406,143.78 300.805,139.862 297.646,143.421C297.646,143.421 293.767,147.979 297.126,158.056C297.126,158.056 299.125,162.694 302.724,161.694C302.724,161.694 304.643,161.174 305.483,159.735C305.483,159.735 309.082,159.495 310.601,158.694C312.121,157.895 313.84,159.055 314.6,159.534C315.36,160.014 323.755,163.093 331.593,162.293C339.43,161.493 348.747,159.454 351.705,160.054C354.664,160.654 353.825,162.333 356.784,162.613C359.743,162.893 364.66,158.817 365.62,152.418C365.62,152.418 366.58,144.261 360.822,143.541C360.822,143.541 358.763,143.721 357.763,144.281C357.763,144.281 357.323,143.861 355.524,144.581C355.524,144.581 354.245,141.382 351.066,141.642C351.066,141.642 349.406,141.802 348.566,142.402C348.566,142.402 351.003,136.804 348.603,133.045C348.603,133.045 345.524,124.369 343.364,122.77C341.205,121.17 336.487,121.09 336.487,121.09C336.487,121.09 319.772,116.213 312.364,126.466" style="fill:rgb(120,79,46);"/>
    </g>
    <g transform="matrix(1,0,0,1,-48.8765,64.6861)">
        <path d="M306.846,127.611C306.388,128.326 305.653,129.035 305.124,129.512C300.044,134.09 298.047,121.498 300.408,117.542C295.77,120.662 297.132,128.937 297.132,128.937C298.382,135.642 303.05,134.295 303.05,134.295C305.727,133.155 306.577,129.765 306.846,127.611" style="fill:rgb(186,148,112);"/>
    </g>
    <g transform="matrix(1,0,0,1,-48.8765,72.8527)">
        <path d="M305.483,125.445C305.483,125.445 309.082,125.205 310.601,124.405C312.121,123.605 313.84,124.766 314.6,125.245C315.36,125.725 323.755,128.804 331.593,128.004C339.43,127.204 348.746,125.165 351.705,125.765C352.848,125.996 353.424,126.389 353.871,126.8C353.903,126.369 353.954,126.102 353.954,126.102C353.519,124.354 353.377,122.691 353.413,121.169C352.368,120.767 350.736,120.011 350.106,119.012C349.146,117.493 349.066,116.213 344.588,119.972C340.11,123.73 328.994,123.571 328.994,123.571C317.318,123.091 310.463,116.973 310.463,116.973C308.784,119.392 307.145,118.873 307.145,118.873C307.106,118.971 307.06,119.07 307.006,119.17C307,124.608 305.483,125.445 305.483,125.445" style="fill:rgb(79,46,23);fill-opacity:0.501961;"/>
    </g>
    <g transform="matrix(1,0,0,1,-48.8765,74.9651)">
        <path d="M296.995,121.251C297.037,121.384 297.08,121.518 297.126,121.654C297.08,121.518 297.037,121.384 296.995,121.251" style="fill:rgb(79,46,23);fill-opacity:0.501961;"/>
    </g>
    <g transform="matrix(1,0,0,1,-48.8765,77.605)">
        <path d="M305.483,120.693C305.483,120.693 309.082,120.453 310.601,119.653C312.121,118.853 313.84,120.013 314.6,120.492C314.958,120.719 317.017,121.524 319.915,122.227C318.672,121.914 315.564,119.831 314.299,119.218C313.019,118.598 311.479,118.038 309.68,118.978C307.88,119.918 305.483,120.693 305.483,120.693" style="fill:rgb(186,148,112);"/>
    </g>
    <g transform="matrix(1,0,0,1,-48.8765,61.8121)">
        <path d="M304.604,120.371C304.538,120.423 304.471,120.476 304.406,120.531C304.406,120.531 300.805,116.613 297.646,120.172C297.646,120.172 293.767,124.73 297.126,134.807C297.126,134.807 299.125,139.445 302.724,138.445C302.724,138.445 304.643,137.925 305.483,136.486C305.483,136.486 307.288,135.49 306.969,128.613C306.969,128.613 307.089,135.45 303.05,137.169C303.05,137.169 298.382,138.516 297.132,131.811C297.132,131.811 295.73,125.654 297.809,121.376C297.809,121.376 298.774,118.978 301.448,119.616C301.448,119.616 304.688,119.856 306.494,127.353C306.494,127.353 306.134,123.954 305.294,121.595C305.294,121.595 307.374,117.876 312.212,120.515C312.212,120.515 310.852,118.975 308.933,118.935C307.014,118.895 304.874,120.915 304.874,120.915L304.604,120.371Z" style="fill:rgb(99,61,33);"/>
    </g>
    <g transform="matrix(1,0,0,1,-48.8765,81.1338)">
        <path d="M317.758,115.329C317.758,115.329 319.598,118.848 331.793,118.768C331.793,118.768 339.23,118.488 342.789,115.329C342.789,115.329 331.033,121.407 317.758,115.329" style="fill:rgb(186,148,112);"/>
    </g>
    <g transform="matrix(1,0,0,1,-48.8765,49.5301)">
        <path d="M318.549,117.706L317.601,118.104L317.838,135.858L322.479,147.577C322.479,147.577 323.694,150.634 327.085,148.521C327.085,148.521 334.761,139.709 337.457,138.307C340.153,136.905 340.813,131.692 340.813,131.692L341.184,124.439L342.04,120.228C342.04,120.228 332.07,124.346 327.186,128.627C327.186,128.627 325.89,127.426 322.874,128.04L318.549,117.706Z" style="fill:rgb(252,201,0);"/>
    </g>
    <g transform="matrix(1,0,0,1,-48.8765,26.4405)">
        <path d="M318.784,141.356L321.71,140.3L322.874,151.13L318.784,141.356Z" style="fill:rgb(255,245,214);"/>
    </g>
    <g transform="matrix(1,0,0,1,-48.8765,25.5677)">
        <path d="M322.874,152.003L322.674,140.944C322.674,140.944 326.431,140.3 329.474,140.673L324.435,151.828C323.976,151.832 323.458,151.884 322.874,152.003" style="fill:rgb(255,245,214);"/>
    </g>
    <g transform="matrix(1,0,0,1,-48.8765,26.591)">
        <path d="M324.435,150.805L331.371,139.713C331.371,139.713 334.827,139.948 338.02,141.734L327.149,150.025L339.309,142.16C339.309,142.16 340.418,142.847 341.023,143.604C338.361,144.772 331.122,148.116 327.186,151.566C327.186,151.566 326.343,150.785 324.435,150.805" style="fill:rgb(255,245,214);"/>
    </g>
    <g transform="matrix(1,0,0,1,-48.8765,-14.813)">
        <ellipse cx="329.369" cy="166.342" rx="14.79" ry="14.018" style="fill:rgb(120,79,46);"/>
    </g>
    <g transform="matrix(1,0,0,1,-48.8765,-10.644)">
        <path d="M333.762,175.562C332.374,175.97 330.898,176.191 329.368,176.191C325.311,176.191 321.635,174.642 318.962,172.133C318.857,171.997 313.988,165.624 321.792,161.68C321.792,161.68 318.405,155.807 323.849,153.191C323.849,153.191 325.703,152.323 327.975,153.845C327.975,153.845 328.361,154.274 329.583,153.995C330.805,153.717 332.176,152.902 333.72,153.352C335.263,153.802 337.599,154.917 337.557,158.132C337.557,158.132 337.47,160.661 335.113,162.162C335.113,162.162 339.529,164.691 338.8,169.45C338.8,169.45 338.668,173.144 333.762,175.562" style="fill:rgb(255,214,176);"/>
    </g>
    <g transform="matrix(1,0,0,1,-48.8765,-18.1136)">
        <path d="M314.107,162.955C314.826,162.955 315.51,163.112 316.126,163.395C315.137,165.276 314.579,167.397 314.579,169.642C314.579,170.781 314.723,171.887 314.993,172.948C314.706,173.001 314.41,173.029 314.107,173.029C311.385,173.029 309.177,170.773 309.177,167.992C309.177,165.21 311.385,162.955 314.107,162.955" style="fill:rgb(120,79,46);"/>
    </g>
    <g transform="matrix(1,0,0,1,-48.8765,-18.6298)">
        <path d="M315.714,164.763C315.038,164.386 313.437,163.749 311.61,164.8C311.61,164.8 310.11,165.7 310.496,166.879C310.881,168.058 309.874,168.679 309.917,169.451C309.959,170.223 310.679,172.578 314.831,172.751L314.831,172.748C314.666,171.909 314.579,171.043 314.579,170.158C314.579,168.246 314.983,166.424 315.714,164.763" style="fill:rgb(255,214,176);"/>
    </g>
    <g transform="matrix(1,0,0,1,-48.8765,-18.1136)">
        <path d="M344.6,162.955C343.88,162.955 343.198,163.112 342.581,163.395C343.571,165.276 344.128,167.397 344.128,169.642C344.128,170.781 343.984,171.887 343.714,172.948C344.001,173.001 344.297,173.029 344.6,173.029C347.323,173.029 349.53,170.773 349.53,167.992C349.53,165.21 347.323,162.955 344.6,162.955" style="fill:rgb(120,79,46);"/>
    </g>
    <g transform="matrix(1,0,0,1,-48.8765,-22.2714)">
        <ellipse cx="324.331" cy="170.071" rx="1.286" ry="2.004" style="fill:rgb(15,15,18);"/>
    </g>
    <g transform="matrix(1,0,0,1,-48.8765,-18.6298)">
        <path d="M342.993,164.763C343.67,164.386 345.27,163.749 347.097,164.8C347.097,164.8 348.597,165.7 348.212,166.879C347.825,168.058 348.833,168.679 348.791,169.451C348.747,170.223 348.028,172.578 343.876,172.751L343.875,172.748C344.041,171.909 344.128,171.043 344.128,170.158C344.128,168.246 343.724,166.424 342.993,164.763" style="fill:rgb(255,214,176);"/>
    </g>
    <g transform="matrix(1,0,0,1,-48.8765,-22.7414)">
        <path d="M324.331,168.537C325.041,168.537 325.617,169.434 325.617,170.54L325.617,170.577C325.394,171.463 324.781,172.075 324.138,171.994C323.579,171.923 323.159,171.35 323.046,170.599L323.045,170.54C323.045,169.434 323.621,168.537 324.331,168.537" style="fill:rgb(99,61,33);"/>
    </g>
    <g transform="matrix(1,0,0,1,-48.8765,-23.3755)">
        <path d="M324.331,169.171C324.957,169.171 325.477,169.866 325.593,170.787C325.504,171.516 324.985,172.075 324.358,172.075C323.669,172.075 323.11,171.398 323.11,170.564L323.11,170.547C323.278,169.747 323.762,169.171 324.331,169.171"/>
    </g>
    <g transform="matrix(1,0,0,1,-48.8765,-21.5024)">
        <path d="M333.352,167.696C334.057,167.899 334.373,168.955 334.056,170.054C333.74,171.153 332.911,171.88 332.206,171.677C331.501,171.474 331.185,170.418 331.502,169.319C331.818,168.219 332.647,167.493 333.352,167.696" style="fill:rgb(15,15,18);"/>
    </g>
    <g transform="matrix(1,0,0,1,-48.8765,-22.1099)">
        <path d="M333.352,168.303C334.057,168.507 334.373,169.562 334.056,170.661C334.019,170.791 333.974,170.916 333.924,171.034C333.407,171.624 332.703,171.88 332.151,171.614C331.64,171.369 331.396,170.743 331.471,170.039C331.481,170.002 331.491,169.964 331.502,169.926C331.818,168.827 332.647,168.1 333.352,168.303" style="fill:rgb(99,61,33);"/>
    </g>
    <g transform="matrix(1,0,0,1,-48.8765,-22.6712)">
        <path d="M333.352,168.865C333.932,169.032 334.248,169.774 334.166,170.644C333.722,171.426 332.932,171.826 332.342,171.541C331.785,171.274 331.592,170.49 331.85,169.702C332.249,169.068 332.833,168.716 333.352,168.865"/>
    </g>
    <g transform="matrix(-0.105672,0.994401,0.994401,0.105672,148.327,-194.972)">
        <path d="M329.982,162.811C329.976,162.823 327.985,167.191 329.615,172.797L329.982,172.69C328.392,167.22 330.325,162.977 330.331,162.965L329.982,162.811Z" style="fill-rule:nonzero;"/>
    </g>
    <g transform="matrix(-0.64132,0.767274,0.767274,0.64132,360.84,-202.136)">
        <path d="M326.58,163.165C326.578,163.167 325.603,164.072 326.24,165.321L326.58,165.147C326.074,164.155 326.837,163.448 326.839,163.445L326.58,163.165Z" style="fill-rule:nonzero;"/>
    </g>
    <g transform="matrix(0.261054,0.965324,0.965324,-0.261054,36.3193,-121.813)">
        <path d="M330.066,163.094C330.063,163.095 328.977,163.676 329.722,165.236L330.066,165.071C329.479,163.839 330.25,163.429 330.252,163.428L330.066,163.094Z" style="fill-rule:nonzero;"/>
    </g>
    <g transform="matrix(1,0,0,1,-48.8765,1.836)">
        <path d="M320.3,154.681C320.302,154.696 321.091,159.722 327.585,160.225L327.593,160.226C327.608,160.228 332.816,160.936 335.329,155.619L335.674,155.782C333.042,161.353 327.564,160.608 327.548,160.606C320.76,160.076 319.925,154.762 319.923,154.747L320.3,154.681Z" style="fill-rule:nonzero;"/>
    </g>
    <g transform="matrix(1,0,0,1,-48.8765,-2.931)">
        <path d="M335.056,159.801C335.083,159.818 335.134,159.845 335.197,159.877C335.515,160.043 336.131,160.362 336.386,160.813L336.053,161C335.855,160.65 335.306,160.364 335.023,160.217C334.949,160.179 334.891,160.149 334.854,160.126L335.056,159.801Z" style="fill-rule:nonzero;"/>
    </g>
    <g transform="matrix(0.13527,0.990809,0.990809,-0.13527,68.1775,-139.038)">
        <path d="M320.352,160.661C320.351,160.663 319.885,161.247 319.973,162.148L320.352,162.11C320.28,161.366 320.643,160.909 320.644,160.908L320.352,160.661Z" style="fill-rule:nonzero;"/>
    </g>
    <g transform="matrix(1,0,0,1,-48.8765,-24.7476)">
        <ellipse cx="324.449" cy="171.309" rx="0.354" ry="0.445" style="fill:rgb(240,232,240);"/>
    </g>
    <g transform="matrix(1,0,0,1,-48.8765,-24.2767)">
        <path d="M333.258,170.64C333.449,170.684 333.559,170.913 333.504,171.153C333.449,171.392 333.25,171.55 333.06,171.507C332.869,171.463 332.759,171.234 332.814,170.994C332.869,170.755 333.068,170.596 333.258,170.64" style="fill:rgb(240,232,240);"/>
    </g>
    <g transform="matrix(1,0,0,1,-48.8765,49.9394)">
        <path d="M341.023,120.255C338.361,121.423 331.122,124.767 327.186,128.218L327.095,146.192L327.085,148.112C327.085,148.112 327.783,147.31 328.833,146.151C331.263,143.47 335.575,138.877 337.457,137.898C337.806,137.716 338.122,137.47 338.406,137.18C340.313,135.231 340.813,131.283 340.813,131.283L341.184,124.03L341.437,122.785L342.04,119.819C342.04,119.819 341.664,119.974 341.023,120.255" style="fill:rgb(252,201,0);"/>
    </g>
    <g transform="matrix(1,0,0,1,-48.8765,45.131)">
        <path d="M321.947,150.634L322.874,132.439L318.784,122.666L318.549,122.105L317.601,122.503L317.733,132.382L317.74,132.903L317.757,134.198L317.759,134.31L317.775,135.488L317.793,136.849L317.807,137.902L317.821,138.961L317.838,140.258L318.477,141.871L318.737,142.528L321.947,150.634Z" style="fill:rgb(252,201,0);"/>
    </g>
    <g transform="matrix(1,0,0,1,-48.8765,59.6699)">
        <path d="M322.874,117.901L321.947,136.095L322.479,137.438C322.479,137.438 323.694,140.494 327.085,138.381L327.095,136.462L327.186,118.487C327.186,118.487 326.343,117.706 324.435,117.726C323.977,117.73 323.458,117.782 322.874,117.901" style="fill:rgb(255,161,23);"/>
    </g>
    <g transform="matrix(1,0,0,1,-48.8765,63.5319)">
        <path d="M353.871,136.121C354.582,136.773 354.967,137.473 356.784,137.645C359.743,137.925 364.66,133.848 365.62,127.45C365.62,127.45 366.38,120.989 362.488,119.06C362.498,119.074 364.917,122.406 364.757,125.997C364.757,125.997 364.437,133.755 357.879,136.514C357.879,136.514 355.673,137.694 354.956,133.705C354.229,129.292 355.273,123.196 358.155,119.131C358.013,119.186 357.881,119.247 357.763,119.312C357.763,119.312 357.323,118.893 355.524,119.612C355.524,119.612 354.245,116.413 351.066,116.673C351.066,116.673 349.406,116.834 348.566,117.433C348.566,117.433 348.202,118.24 347.242,119.52C347.242,119.52 350.481,116.96 352.281,117.64C354.081,118.32 355.52,122.118 355.52,122.118C352.201,127.856 352.941,131.346 353.871,136.121" style="fill:rgb(99,61,33);"/>
    </g>
    <g transform="matrix(1,0,0,1,-48.8765,64.6509)">
        <path d="M359.678,118.761C359.678,118.761 356.094,121.103 355.745,128.026C355.745,128.026 354.871,133.129 357.389,134.109C357.389,134.109 359.486,134.458 361.688,130.577C361.688,130.577 355.604,130.337 359.678,118.761" style="fill:rgb(255,214,176);fill-opacity:0.501961;"/>
    </g>
    <g transform="matrix(1,0,0,1,-48.8765,43.3256)">
        <path d="M316.961,130.139C317.074,130.093 317.16,130.066 317.205,130.055L317.667,129.946L317.673,130.423C317.695,132.047 317.777,134.142 317.8,134.713C318.557,135.42 320.053,135.612 321.233,135.763C321.67,135.819 322.068,135.87 322.389,135.941C322.905,136.054 323.152,135.897 323.395,135.742C323.706,135.545 324.012,135.351 324.592,135.406C324.97,135.443 325.311,135.617 325.552,135.872C325.73,136.061 325.856,136.297 325.904,136.558C325.952,136.821 325.922,137.104 325.789,137.383C325.615,137.746 325.264,138.105 324.678,138.395C323.603,138.927 322.089,138.751 321.025,138.515C322.342,139.287 324.485,138.722 324.493,138.72L324.619,138.708C324.953,138.735 325.218,138.808 325.423,138.913C325.752,139.082 325.929,139.33 326,139.615C326.064,139.874 326.031,140.15 325.941,140.415C325.832,140.735 325.635,141.047 325.438,141.281C325.105,141.677 324.231,141.791 323.265,141.705C322.829,141.666 322.367,141.59 321.926,141.484C323.271,142.101 324.582,142.791 324.196,143.804C324.098,144.063 323.877,144.257 323.561,144.383C323.15,144.546 322.542,144.599 321.825,144.524C321.135,144.452 320.332,144.264 319.5,143.947C317.289,143.105 314.831,141.34 313.656,138.385C313.481,137.944 313.349,137.526 313.256,137.131C312.714,134.839 313.398,133.184 314.342,132.052C315.275,130.933 316.467,130.335 316.961,130.139ZM316.92,130.993C316.401,131.247 315.592,131.745 314.928,132.54C314.115,133.516 313.527,134.952 314.001,136.958C314.087,137.324 314.207,137.706 314.365,138.103C315.446,140.822 317.722,142.451 319.773,143.232C320.544,143.526 321.278,143.699 321.902,143.764C322.499,143.826 322.981,143.792 323.28,143.674C323.392,143.629 323.462,143.581 323.481,143.532C323.646,143.101 322.4,142.537 321.259,142.02C320.195,141.538 319.203,141.089 319.091,140.482L319.087,140.455C319.087,140.452 318.912,139.287 320.84,140.299L320.842,140.299C321.462,140.625 322.452,140.867 323.33,140.945C324.072,141.011 324.698,140.976 324.855,140.79C324.998,140.621 325.14,140.396 325.217,140.17C325.264,140.033 325.284,139.902 325.258,139.798C325.239,139.72 325.183,139.649 325.073,139.592C324.967,139.537 324.816,139.497 324.614,139.476C324.078,139.602 320.599,140.318 319.533,137.954L319.165,137.136L320.009,137.436C320.017,137.44 322.813,138.466 324.34,137.71C324.755,137.504 324.992,137.275 325.098,137.053C325.158,136.926 325.173,136.805 325.153,136.696C325.133,136.585 325.076,136.482 324.995,136.396C324.877,136.27 324.708,136.185 324.521,136.167C324.204,136.136 324.006,136.262 323.806,136.389C323.432,136.627 323.051,136.868 322.224,136.685C321.936,136.622 321.556,136.573 321.138,136.52C319.783,136.346 318.052,136.124 317.143,135.136L317.043,134.892C317.043,134.885 316.955,132.818 316.92,130.993" style="fill:rgb(120,79,46);fill-rule:nonzero;"/>
    </g>
    <g transform="matrix(1,0,0,1,-48.8765,44.2172)">
        <path d="M317.292,129.536C316.884,129.632 311.777,131.736 314.011,137.352C316.245,142.968 323.328,144.116 323.839,142.776C324.349,141.437 319.642,140.479 319.467,139.522C319.467,139.522 319.387,139.075 320.664,139.745C321.94,140.415 324.636,140.75 325.146,140.144C325.657,139.538 326.168,138.325 324.588,138.197C324.588,138.197 320.903,139.171 319.882,136.905C319.882,136.905 322.833,137.99 324.508,137.16C326.184,136.331 325.546,134.991 324.556,134.895C323.567,134.799 323.535,135.693 322.307,135.422C321.079,135.15 318.509,135.166 317.425,133.985C317.425,133.985 317.317,131.45 317.292,129.536" style="fill:rgb(255,214,176);"/>
    </g>
    <g transform="matrix(1,0,0,1,-48.8765,43.2939)">
        <path d="M342.012,130.248C341.899,130.2 341.815,130.17 341.77,130.158L341.311,130.035L341.291,130.512C341.222,132.134 341.08,134.227 341.041,134.796C340.263,135.482 338.762,135.63 337.578,135.746C337.14,135.79 336.742,135.829 336.418,135.891C335.899,135.99 335.656,135.825 335.417,135.664C335.112,135.457 334.812,135.254 334.231,135.294C333.852,135.319 333.506,135.483 333.258,135.73C333.074,135.914 332.942,136.147 332.887,136.406C332.831,136.668 332.853,136.951 332.978,137.234C333.141,137.602 333.481,137.97 334.059,138.277C335.118,138.84 336.636,138.708 337.707,138.503C336.368,139.237 334.242,138.61 334.235,138.608L334.109,138.592C333.773,138.61 333.506,138.675 333.299,138.774C332.965,138.934 332.781,139.176 332.702,139.459C332.63,139.716 332.655,139.993 332.737,140.26C332.837,140.583 333.025,140.902 333.215,141.14C333.537,141.546 334.407,141.685 335.376,141.627C335.812,141.601 336.276,141.538 336.72,141.445C335.358,142.023 334.027,142.674 334.384,143.699C334.475,143.96 334.689,144.16 335.002,144.295C335.408,144.471 336.015,144.541 336.734,144.486C337.424,144.435 338.233,144.27 339.073,143.977C341.309,143.199 343.816,141.506 345.077,138.586C345.264,138.151 345.408,137.737 345.513,137.345C346.12,135.07 345.484,133.396 344.573,132.236C343.674,131.092 342.499,130.459 342.012,130.248ZM342.028,131.103C342.539,131.372 343.334,131.893 343.973,132.707C344.758,133.707 345.305,135.159 344.773,137.15C344.676,137.514 344.545,137.892 344.376,138.284C343.216,140.971 340.894,142.534 338.822,143.255C338.043,143.526 337.303,143.678 336.678,143.725C336.08,143.77 335.598,143.722 335.303,143.595C335.193,143.547 335.123,143.497 335.106,143.447C334.955,143.012 336.216,142.484 337.371,142.001C338.449,141.549 339.454,141.129 339.582,140.526L339.588,140.499C339.588,140.496 339.797,139.336 337.84,140.292L337.838,140.292C337.208,140.6 336.212,140.813 335.332,140.866C334.588,140.91 333.964,140.858 333.813,140.667C333.675,140.493 333.539,140.265 333.468,140.036C333.426,139.898 333.41,139.766 333.438,139.663C333.459,139.586 333.518,139.516 333.629,139.463C333.737,139.411 333.889,139.374 334.091,139.36C334.623,139.501 338.08,140.318 339.214,137.986L339.606,137.179L338.754,137.455C338.746,137.457 335.921,138.402 334.417,137.602C334.008,137.385 333.777,137.148 333.678,136.924C333.621,136.796 333.61,136.674 333.633,136.566C333.656,136.456 333.716,136.353 333.8,136.27C333.921,136.148 334.092,136.067 334.281,136.055C334.598,136.033 334.793,136.165 334.989,136.298C335.355,136.546 335.729,136.799 336.561,136.64C336.851,136.585 337.232,136.547 337.652,136.506C339.011,136.372 340.748,136.2 341.684,135.238L341.792,134.997C341.792,134.991 341.94,132.926 342.028,131.103" style="fill:rgb(120,79,46);fill-rule:nonzero;"/>
    </g>
    <g transform="matrix(1,0,0,1,-48.8765,44.1726)">
        <path d="M341.672,129.649C342.077,129.757 347.121,132.008 344.726,137.557C342.33,143.106 335.217,144.049 334.745,142.694C334.274,141.34 339.006,140.519 339.209,139.567C339.209,139.567 339.301,139.124 338.006,139.756C336.712,140.389 334.006,140.646 333.514,140.025C333.021,139.404 332.546,138.177 334.128,138.095C334.128,138.095 337.784,139.175 338.871,136.94C338.871,136.94 335.888,137.939 334.238,137.062C332.587,136.183 333.264,134.862 334.256,134.795C335.247,134.728 335.253,135.622 336.489,135.387C337.725,135.151 340.292,135.241 341.411,134.092C341.411,134.092 341.591,131.561 341.672,129.649" style="fill:rgb(255,214,176);"/>
    </g>
</svg>
